<svg width="1421" height="922" xmlns="http://www.w3.org/2000/svg" xmlns:xlink="http://www.w3.org/1999/xlink" xml:space="preserve" overflow="hidden"><g transform="translate(-1489 -572)"><g><path d="M1836.5 658C1836.5 651.649 1842.32 646.5 1849.5 646.5 1856.68 646.5 1862.5 651.649 1862.5 658 1862.5 664.351 1856.68 669.5 1849.5 669.5 1842.32 669.5 1836.5 664.351 1836.5 658Z" stroke="#D6D6D6" stroke-width="14.8958" stroke-linecap="butt" stroke-linejoin="miter" stroke-miterlimit="8" stroke-opacity="1" fill="#FFFFFF" fill-rule="evenodd" fill-opacity="1"/><path d="M1651.5 779C1651.5 772.649 1657.54 767.5 1665 767.5 1672.46 767.5 1678.5 772.649 1678.5 779 1678.5 785.351 1672.46 790.5 1665 790.5 1657.54 790.5 1651.5 785.351 1651.5 779Z" stroke="#D6D6D6" stroke-width="14.8958" stroke-linecap="butt" stroke-linejoin="miter" stroke-miterlimit="8" stroke-opacity="1" fill="#FFFFFF" fill-rule="evenodd" fill-opacity="1"/><path d="M2048.5 597C2048.5 590.649 2054.32 585.5 2061.5 585.5 2068.68 585.5 2074.5 590.649 2074.5 597 2074.5 603.351 2068.68 608.5 2061.5 608.5 2054.32 608.5 2048.5 603.351 2048.5 597Z" stroke="#D6D6D6" stroke-width="14.8958" stroke-linecap="butt" stroke-linejoin="miter" stroke-miterlimit="8" stroke-opacity="1" fill="#FFFFFF" fill-rule="evenodd" fill-opacity="1"/><path d="M2133.5 736C2133.5 729.649 2139.54 724.5 2147 724.5 2154.46 724.5 2160.5 729.649 2160.5 736 2160.5 742.351 2154.46 747.5 2147 747.5 2139.54 747.5 2133.5 742.351 2133.5 736Z" stroke="#D6D6D6" stroke-width="14.8958" stroke-linecap="butt" stroke-linejoin="miter" stroke-miterlimit="8" stroke-opacity="1" fill="#FFFFFF" fill-rule="evenodd" fill-opacity="1"/><path d="M2410.5 738C2410.5 731.649 2416.32 726.5 2423.5 726.5 2430.68 726.5 2436.5 731.649 2436.5 738 2436.5 744.351 2430.68 749.5 2423.5 749.5 2416.32 749.5 2410.5 744.351 2410.5 738Z" stroke="#D6D6D6" stroke-width="14.8958" stroke-linecap="butt" stroke-linejoin="miter" stroke-miterlimit="8" stroke-opacity="1" fill="#FFFFFF" fill-rule="evenodd" fill-opacity="1"/><path d="M2616.5 802C2616.5 795.649 2622.32 790.5 2629.5 790.5 2636.68 790.5 2642.5 795.649 2642.5 802 2642.5 808.351 2636.68 813.5 2629.5 813.5 2622.32 813.5 2616.5 808.351 2616.5 802Z" stroke="#D6D6D6" stroke-width="14.8958" stroke-linecap="butt" stroke-linejoin="miter" stroke-miterlimit="8" stroke-opacity="1" fill="#FFFFFF" fill-rule="evenodd" fill-opacity="1"/><path d="M2875.5 1073C2875.5 1066.65 2881.32 1061.5 2888.5 1061.5 2895.68 1061.5 2901.5 1066.65 2901.5 1073 2901.5 1079.35 2895.68 1084.5 2888.5 1084.5 2881.32 1084.5 2875.5 1079.35 2875.5 1073Z" stroke="#D6D6D6" stroke-width="14.8958" stroke-linecap="butt" stroke-linejoin="miter" stroke-miterlimit="8" stroke-opacity="1" fill="#FFFFFF" fill-rule="evenodd" fill-opacity="1"/><path d="M1499.5 1078C1499.5 1071.65 1505.32 1066.5 1512.5 1066.5 1519.68 1066.5 1525.5 1071.65 1525.5 1078 1525.5 1084.35 1519.68 1089.5 1512.5 1089.5 1505.32 1089.5 1499.5 1084.35 1499.5 1078Z" stroke="#D6D6D6" stroke-width="14.8958" stroke-linecap="butt" stroke-linejoin="miter" stroke-miterlimit="8" stroke-opacity="1" fill="#FFFFFF" fill-rule="evenodd" fill-opacity="1"/><path d="M1785.5 1275C1785.5 1268.65 1791.32 1263.5 1798.5 1263.5 1805.68 1263.5 1811.5 1268.65 1811.5 1275 1811.5 1281.35 1805.68 1286.5 1798.5 1286.5 1791.32 1286.5 1785.5 1281.35 1785.5 1275Z" stroke="#D6D6D6" stroke-width="14.8958" stroke-linecap="butt" stroke-linejoin="miter" stroke-miterlimit="8" stroke-opacity="1" fill="#FFFFFF" fill-rule="evenodd" fill-opacity="1"/><path d="M1992.5 1301C1992.5 1294.65 1998.54 1289.5 2006 1289.5 2013.46 1289.5 2019.5 1294.65 2019.5 1301 2019.5 1307.35 2013.46 1312.5 2006 1312.5 1998.54 1312.5 1992.5 1307.35 1992.5 1301Z" stroke="#D6D6D6" stroke-width="14.8958" stroke-linecap="butt" stroke-linejoin="miter" stroke-miterlimit="8" stroke-opacity="1" fill="#FFFFFF" fill-rule="evenodd" fill-opacity="1"/><path d="M1896.5 1178C1896.5 1171.65 1902.32 1166.5 1909.5 1166.5 1916.68 1166.5 1922.5 1171.65 1922.5 1178 1922.5 1184.35 1916.68 1189.5 1909.5 1189.5 1902.32 1189.5 1896.5 1184.35 1896.5 1178Z" stroke="#D6D6D6" stroke-width="14.8958" stroke-linecap="butt" stroke-linejoin="miter" stroke-miterlimit="8" stroke-opacity="1" fill="#FFFFFF" fill-rule="evenodd" fill-opacity="1"/><path d="M1535.5 938C1535.5 931.649 1541.32 926.5 1548.5 926.5 1555.68 926.5 1561.5 931.649 1561.5 938 1561.5 944.351 1555.68 949.5 1548.5 949.5 1541.32 949.5 1535.5 944.351 1535.5 938Z" stroke="#D6D6D6" stroke-width="14.8958" stroke-linecap="butt" stroke-linejoin="miter" stroke-miterlimit="8" stroke-opacity="1" fill="#FFFFFF" fill-rule="evenodd" fill-opacity="1"/><path d="M1803.5 812C1803.5 805.649 1809.54 800.5 1817 800.5 1824.46 800.5 1830.5 805.649 1830.5 812 1830.5 818.351 1824.46 823.5 1817 823.5 1809.54 823.5 1803.5 818.351 1803.5 812Z" stroke="#D6D6D6" stroke-width="14.8958" stroke-linecap="butt" stroke-linejoin="miter" stroke-miterlimit="8" stroke-opacity="1" fill="#FFFFFF" fill-rule="evenodd" fill-opacity="1"/><path d="M2701.5 730C2701.5 723.649 2707.54 718.5 2715 718.5 2722.46 718.5 2728.5 723.649 2728.5 730 2728.5 736.351 2722.46 741.5 2715 741.5 2707.54 741.5 2701.5 736.351 2701.5 730Z" stroke="#D6D6D6" stroke-width="14.8958" stroke-linecap="butt" stroke-linejoin="miter" stroke-miterlimit="8" stroke-opacity="1" fill="#FFFFFF" fill-rule="evenodd" fill-opacity="1"/><path d="M1657.5 1103.5C1657.5 1096.87 1663.32 1091.5 1670.5 1091.5 1677.68 1091.5 1683.5 1096.87 1683.5 1103.5 1683.5 1110.13 1677.68 1115.5 1670.5 1115.5 1663.32 1115.5 1657.5 1110.13 1657.5 1103.5Z" stroke="#D6D6D6" stroke-width="14.8958" stroke-linecap="butt" stroke-linejoin="miter" stroke-miterlimit="8" stroke-opacity="1" fill="#FFFFFF" fill-rule="evenodd" fill-opacity="1"/><path d="M1668.5 914C1668.5 907.649 1674.32 902.5 1681.5 902.5 1688.68 902.5 1694.5 907.649 1694.5 914 1694.5 920.351 1688.68 925.5 1681.5 925.5 1674.32 925.5 1668.5 920.351 1668.5 914Z" stroke="#D6D6D6" stroke-width="14.8958" stroke-linecap="butt" stroke-linejoin="miter" stroke-miterlimit="8" stroke-opacity="1" fill="#FFFFFF" fill-rule="evenodd" fill-opacity="1"/><path d="M1682.02 902.668 1665.5 790.5" stroke="#D6D6D6" stroke-width="14.8958" stroke-linecap="butt" stroke-linejoin="miter" stroke-miterlimit="8" stroke-opacity="1" fill="#D6D6D6" fill-rule="evenodd" fill-opacity="1"/><path d="M0 0 218.559 57.4656" stroke="#D6D6D6" stroke-width="14.8958" stroke-linecap="butt" stroke-linejoin="miter" stroke-miterlimit="8" stroke-opacity="1" fill="none" fill-rule="evenodd" transform="matrix(1 0 0 -1 1856.5 654.966)"/><path d="M2070.5 605.5 2156.1 744.284" stroke="#D6D6D6" stroke-width="14.8958" stroke-linecap="butt" stroke-linejoin="miter" stroke-miterlimit="8" stroke-opacity="1" fill="#FFFFFF" fill-rule="evenodd" fill-opacity="1"/><path d="M0 0 241.946 5.09364" stroke="#D6D6D6" stroke-width="14.8958" stroke-linecap="butt" stroke-linejoin="miter" stroke-miterlimit="8" stroke-opacity="1" fill="none" fill-rule="evenodd" transform="matrix(1 0 0 -1 2074.5 596.594)"/><path d="M2511.5 629.5 2629.47 801.498" stroke="#D6D6D6" stroke-width="14.8958" stroke-linecap="butt" stroke-linejoin="miter" stroke-miterlimit="8" stroke-opacity="1" fill="none" fill-rule="evenodd"/><path d="M0 0 108.654 39.3604" stroke="#D6D6D6" stroke-width="14.8958" stroke-linecap="butt" stroke-linejoin="miter" stroke-miterlimit="8" stroke-opacity="1" fill="none" fill-rule="evenodd" transform="matrix(-1 0 0 1 2620.15 810.5)"/><path d="M2863.5 895.5 2888.22 1061.59" stroke="#D6D6D6" stroke-width="14.8958" stroke-linecap="butt" stroke-linejoin="miter" stroke-miterlimit="8" stroke-opacity="1" fill="#D6D6D6" fill-rule="evenodd" fill-opacity="1"/><path d="M2019.49 1300.72 1785.5 1274.5" stroke="#D6D6D6" stroke-width="14.8958" stroke-linecap="butt" stroke-linejoin="miter" stroke-miterlimit="8" stroke-opacity="1" fill="#D6D6D6" fill-rule="evenodd" fill-opacity="1"/><path d="M1996.45 1293.1 1918.5 1186.5" stroke="#D6D6D6" stroke-width="14.8958" stroke-linecap="butt" stroke-linejoin="miter" stroke-miterlimit="8" stroke-opacity="1" fill="#D6D6D6" fill-rule="evenodd" fill-opacity="1"/><path d="M0 0 111.894 143.783" stroke="#D6D6D6" stroke-width="14.8958" stroke-linecap="butt" stroke-linejoin="miter" stroke-miterlimit="8" stroke-opacity="1" fill="none" fill-rule="evenodd" transform="matrix(1 0 0 -1 1548.5 926.283)"/><path d="M0 0 184.078 121.129" stroke="#D6D6D6" stroke-width="14.8958" stroke-linecap="butt" stroke-linejoin="miter" stroke-miterlimit="8" stroke-opacity="1" fill="none" fill-rule="evenodd" transform="matrix(1 0 0 -1 1674.5 770.629)"/><path d="M1858.5 665.5 1964.47 731.555" stroke="#D6D6D6" stroke-width="14.8958" stroke-linecap="butt" stroke-linejoin="miter" stroke-miterlimit="8" stroke-opacity="1" fill="none" fill-rule="evenodd"/><path d="M2316.5 591.5 2509.7 620.372" stroke="#D6D6D6" stroke-width="14.8958" stroke-linecap="butt" stroke-linejoin="miter" stroke-miterlimit="8" stroke-opacity="1" fill="#D6D6D6" fill-rule="evenodd" fill-opacity="1"/><path d="M0 0 82.1968 113.23" stroke="#D6D6D6" stroke-width="14.8958" stroke-linecap="butt" stroke-linejoin="miter" stroke-miterlimit="8" stroke-opacity="1" fill="none" fill-rule="evenodd" transform="matrix(-1 0 0 1 2514.7 616.5)"/><path d="M0 0 66.9813 55.9722" stroke="#D6D6D6" stroke-width="14.8958" stroke-linecap="butt" stroke-linejoin="miter" stroke-miterlimit="8" stroke-opacity="1" fill="#D6D6D6" fill-rule="evenodd" fill-opacity="1" transform="matrix(-1 0 0 1 2705.48 737.5)"/><path d="M2724.5 737.5 2845.48 878.733" stroke="#D6D6D6" stroke-width="14.8958" stroke-linecap="butt" stroke-linejoin="miter" stroke-miterlimit="8" stroke-opacity="1" fill="#D6D6D6" fill-rule="evenodd" fill-opacity="1"/><path d="M2774.05 892.247 2638.5 810.5" stroke="#D6D6D6" stroke-width="14.8958" stroke-linecap="butt" stroke-linejoin="miter" stroke-miterlimit="8" stroke-opacity="1" fill="none" fill-rule="evenodd"/><path d="M2401.74 731.822 2156.5 727.5" stroke="#D6D6D6" stroke-width="14.8958" stroke-linecap="butt" stroke-linejoin="miter" stroke-miterlimit="8" stroke-opacity="1" fill="#D6D6D6" fill-rule="evenodd" fill-opacity="1"/><path d="M0 0 153.781 106.43" stroke="#D6D6D6" stroke-width="14.8958" stroke-linecap="butt" stroke-linejoin="miter" stroke-miterlimit="8" stroke-opacity="1" fill="#D6D6D6" fill-rule="evenodd" fill-opacity="1" transform="matrix(1 0 0 -1 1667.5 918.93)"/><path d="M0 0 10.4439 129.341" stroke="#D6D6D6" stroke-width="14.8958" stroke-linecap="butt" stroke-linejoin="miter" stroke-miterlimit="8" stroke-opacity="1" fill="#D6D6D6" fill-rule="evenodd" fill-opacity="1" transform="matrix(1 0 0 -1 1817.5 800.841)"/><path d="M2518.5 624.5 2705.5 721.369" stroke="#D6D6D6" stroke-width="14.8958" stroke-linecap="butt" stroke-linejoin="miter" stroke-miterlimit="8" stroke-opacity="1" fill="none" fill-rule="evenodd"/><path d="M0 0 65.8084 162.712" stroke="#D6D6D6" stroke-width="14.8958" stroke-linecap="butt" stroke-linejoin="miter" stroke-miterlimit="8" stroke-opacity="1" fill="none" fill-rule="evenodd" transform="matrix(-1 0 0 1 2888.31 1084.5)"/><path d="M0 0 77.1072 37.7955" stroke="#D6D6D6" stroke-width="14.8958" stroke-linecap="butt" stroke-linejoin="miter" stroke-miterlimit="8" stroke-opacity="1" fill="#D6D6D6" fill-rule="evenodd" fill-opacity="1" transform="matrix(-1 0 0 1 1756.61 1057.5)"/><path d="M0 0 133.458 19.2099" stroke="#D6D6D6" stroke-width="14.8958" stroke-linecap="butt" stroke-linejoin="miter" stroke-miterlimit="8" stroke-opacity="1" fill="none" fill-rule="evenodd" transform="matrix(-1 0 0 1 1671.96 916.5)"/><path d="M0 0 137.721 127.574" stroke="#D6D6D6" stroke-width="14.8958" stroke-linecap="butt" stroke-linejoin="miter" stroke-miterlimit="8" stroke-opacity="1" fill="none" fill-rule="evenodd" transform="matrix(-1 0 0 1 2294.22 600.5)"/><path d="M2785.49 902.544 2714.5 741.5" stroke="#D6D6D6" stroke-width="14.8958" stroke-linecap="butt" stroke-linejoin="miter" stroke-miterlimit="8" stroke-opacity="1" fill="#D6D6D6" fill-rule="evenodd" fill-opacity="1"/><path d="M2432.5 746.5 2488.81 841.634" stroke="#D6D6D6" stroke-width="14.8958" stroke-linecap="butt" stroke-linejoin="miter" stroke-miterlimit="8" stroke-opacity="1" fill="none" fill-rule="evenodd"/><path d="M0 0 7.68232 178.735" stroke="#D6D6D6" stroke-width="14.8958" stroke-linecap="butt" stroke-linejoin="miter" stroke-miterlimit="8" stroke-opacity="1" fill="#D6D6D6" fill-rule="evenodd" fill-opacity="1" transform="matrix(-1 0 0 1 1678.18 913.5)"/><path d="M0 0 138.096 79.4613" stroke="#D6D6D6" stroke-width="14.8958" stroke-linecap="butt" stroke-linejoin="miter" stroke-miterlimit="8" stroke-opacity="1" fill="#D6D6D6" fill-rule="evenodd" fill-opacity="1" transform="matrix(1 0 0 -1 1826.5 803.961)"/><path d="M1585.5 1214C1585.5 1207.65 1591.32 1202.5 1598.5 1202.5 1605.68 1202.5 1611.5 1207.65 1611.5 1214 1611.5 1220.35 1605.68 1225.5 1598.5 1225.5 1591.32 1225.5 1585.5 1220.35 1585.5 1214Z" stroke="#D6D6D6" stroke-width="14.8958" stroke-linecap="butt" stroke-linejoin="miter" stroke-miterlimit="8" stroke-opacity="1" fill="#FFFFFF" fill-rule="evenodd" fill-opacity="1"/><path d="M0 0 26.4069 120.259" stroke="#D6D6D6" stroke-width="14.8958" stroke-linecap="butt" stroke-linejoin="miter" stroke-miterlimit="8" stroke-opacity="1" fill="#D6D6D6" fill-rule="evenodd" fill-opacity="1" transform="matrix(-1 0 0 1 1538.91 946.5)"/><path d="M0 0 71.9082 110.479" stroke="#D6D6D6" stroke-width="14.8958" stroke-linecap="butt" stroke-linejoin="miter" stroke-miterlimit="8" stroke-opacity="1" fill="none" fill-rule="evenodd" transform="matrix(-1 0 0 1 1679.41 1095.5)"/><path d="M0 0 98.7871 84.5499" stroke="#D6D6D6" stroke-width="14.8958" stroke-linecap="butt" stroke-linejoin="miter" stroke-miterlimit="8" stroke-opacity="1" fill="none" fill-rule="evenodd" transform="matrix(-1 0 0 1 1906.29 1181.5)"/><path d="M0 0 147.788 103.635" stroke="#D6D6D6" stroke-width="14.8958" stroke-linecap="butt" stroke-linejoin="miter" stroke-miterlimit="8" stroke-opacity="1" fill="#D6D6D6" fill-rule="evenodd" fill-opacity="1" transform="matrix(1 0 0 -1 2266.5 850.135)"/><path d="M2629.15 790.118 2403.5 736.5" stroke="#D6D6D6" stroke-width="14.8958" stroke-linecap="butt" stroke-linejoin="miter" stroke-miterlimit="8" stroke-opacity="1" fill="#D6D6D6" fill-rule="evenodd" fill-opacity="1"/><path d="M1557.5 946.5 1679.72 1111.91" stroke="#D6D6D6" stroke-width="14.8958" stroke-linecap="butt" stroke-linejoin="miter" stroke-miterlimit="8" stroke-opacity="1" fill="none" fill-rule="evenodd"/><path d="M1499.5 1078.5 1679.92 1112.13" stroke="#D6D6D6" stroke-width="14.8958" stroke-linecap="butt" stroke-linejoin="miter" stroke-miterlimit="8" stroke-opacity="1" fill="none" fill-rule="evenodd"/><path d="M1521.5 1086.5 1607.53 1222.45" stroke="#D6D6D6" stroke-width="14.8958" stroke-linecap="butt" stroke-linejoin="miter" stroke-miterlimit="8" stroke-opacity="1" fill="#D6D6D6" fill-rule="evenodd" fill-opacity="1"/><path d="M1611.5 1213.5 1785.07 1274.12" stroke="#D6D6D6" stroke-width="14.8958" stroke-linecap="butt" stroke-linejoin="miter" stroke-miterlimit="8" stroke-opacity="1" fill="none" fill-rule="evenodd"/><path d="M1672.5 1106.5 1789.01 1266.07" stroke="#D6D6D6" stroke-width="14.8958" stroke-linecap="butt" stroke-linejoin="miter" stroke-miterlimit="8" stroke-opacity="1" fill="none" fill-rule="evenodd"/><path d="M1899.96 1169.62 1679.5 1111.5" stroke="#D6D6D6" stroke-width="14.8958" stroke-linecap="butt" stroke-linejoin="miter" stroke-miterlimit="8" stroke-opacity="1" fill="#D6D6D6" fill-rule="evenodd" fill-opacity="1"/><path d="M2002.5 1106.5 2176.6 1227.6" stroke="#D6D6D6" stroke-width="14.8958" stroke-linecap="butt" stroke-linejoin="miter" stroke-miterlimit="8" stroke-opacity="1" fill="none" fill-rule="evenodd"/><path d="M0 0 175.696 73.0406" stroke="#D6D6D6" stroke-width="14.8958" stroke-linecap="butt" stroke-linejoin="miter" stroke-miterlimit="8" stroke-opacity="1" fill="#D6D6D6" fill-rule="evenodd" fill-opacity="1" transform="matrix(1 0 0 -1 2019.5 1300.54)"/><path d="M0 0 74.0955 70.3603" stroke="#D6D6D6" stroke-width="14.8958" stroke-linecap="butt" stroke-linejoin="miter" stroke-miterlimit="8" stroke-opacity="1" fill="none" fill-rule="evenodd" transform="matrix(1 0 0 -1 1918.5 1169.86)"/><path d="M0 0 233.763 132.508" stroke="#D6D6D6" stroke-width="14.8958" stroke-linecap="butt" stroke-linejoin="miter" stroke-miterlimit="8" stroke-opacity="1" fill="none" fill-rule="evenodd" transform="matrix(-1 0 0 1 2410.26 1111.5)"/><path d="M1912.13 1178.89 1774.5 1059.5" stroke="#D6D6D6" stroke-width="14.8958" stroke-linecap="butt" stroke-linejoin="miter" stroke-miterlimit="8" stroke-opacity="1" fill="none" fill-rule="evenodd"/><path d="M2247.8 849.296 2156.5 743.5" stroke="#D6D6D6" stroke-width="14.8958" stroke-linecap="butt" stroke-linejoin="miter" stroke-miterlimit="8" stroke-opacity="1" fill="#D6D6D6" fill-rule="evenodd" fill-opacity="1"/><path d="M0 0 268.618 135.094" stroke="#D6D6D6" stroke-width="14.8958" stroke-linecap="butt" stroke-linejoin="miter" stroke-miterlimit="8" stroke-opacity="1" fill="#D6D6D6" fill-rule="evenodd" fill-opacity="1" transform="matrix(-1 0 0 1 2138.12 743.5)"/><path d="M2172.5 1236C2172.5 1229.65 2178.32 1224.5 2185.5 1224.5 2192.68 1224.5 2198.5 1229.65 2198.5 1236 2198.5 1242.35 2192.68 1247.5 2185.5 1247.5 2178.32 1247.5 2172.5 1242.35 2172.5 1236Z" stroke="#D6D6D6" stroke-width="14.8958" stroke-linecap="butt" stroke-linejoin="miter" stroke-miterlimit="8" stroke-opacity="1" fill="#FFFFFF" fill-rule="evenodd" fill-opacity="1"/><path d="M0 0 294.327 40.3164" stroke="#D6D6D6" stroke-width="14.8958" stroke-linecap="butt" stroke-linejoin="miter" stroke-miterlimit="8" stroke-opacity="1" fill="none" fill-rule="evenodd" transform="matrix(1 0 0 -1 2184.5 1239.82)"/><path d="M2699.61 979.005 2629.5 813.5" stroke="#D6D6D6" stroke-width="14.8958" stroke-linecap="butt" stroke-linejoin="miter" stroke-miterlimit="8" stroke-opacity="1" fill="none" fill-rule="evenodd"/><path d="M2199.05 1235.89 1902.5 1174.5" stroke="#D6D6D6" stroke-width="14.8958" stroke-linecap="butt" stroke-linejoin="miter" stroke-miterlimit="8" stroke-opacity="1" fill="#D6D6D6" fill-rule="evenodd" fill-opacity="1"/><path d="M1751.5 1052C1751.5 1045.65 1757.32 1040.5 1764.5 1040.5 1771.68 1040.5 1777.5 1045.65 1777.5 1052 1777.5 1058.35 1771.68 1063.5 1764.5 1063.5 1757.32 1063.5 1751.5 1058.35 1751.5 1052Z" stroke="#D6D6D6" stroke-width="14.8958" stroke-linecap="butt" stroke-linejoin="miter" stroke-miterlimit="8" stroke-opacity="1" fill="#FFFFFF" fill-rule="evenodd" fill-opacity="1"/><path d="M1755.04 1043.67 1690.5 922.5" stroke="#D6D6D6" stroke-width="14.8958" stroke-linecap="butt" stroke-linejoin="miter" stroke-miterlimit="8" stroke-opacity="1" fill="none" fill-rule="evenodd"/><path d="M0 0 164.866 36.222" stroke="#D6D6D6" stroke-width="14.8958" stroke-linecap="butt" stroke-linejoin="miter" stroke-miterlimit="8" stroke-opacity="1" fill="#D6D6D6" fill-rule="evenodd" fill-opacity="1" transform="matrix(1 0 0 -1 1694.5 913.722)"/><path d="M1979.25 1098.38 1777.5 1051.5" stroke="#D6D6D6" stroke-width="14.8958" stroke-linecap="butt" stroke-linejoin="miter" stroke-miterlimit="8" stroke-opacity="1" fill="none" fill-rule="evenodd"/><path d="M0 0 102.07 41.0493" stroke="#D6D6D6" stroke-width="14.8958" stroke-linecap="butt" stroke-linejoin="miter" stroke-miterlimit="8" stroke-opacity="1" fill="none" fill-rule="evenodd" transform="matrix(1 0 0 -1 2002.5 1090.55)"/><path d="M2183.9 1229.04 2122.5 1049.5" stroke="#D6D6D6" stroke-width="14.8958" stroke-linecap="butt" stroke-linejoin="miter" stroke-miterlimit="8" stroke-opacity="1" fill="none" fill-rule="evenodd"/><path d="M0 0 81.8562 152.885" stroke="#D6D6D6" stroke-width="14.8958" stroke-linecap="butt" stroke-linejoin="miter" stroke-miterlimit="8" stroke-opacity="1" fill="none" fill-rule="evenodd" transform="matrix(1 0 0 -1 1774.5 1043.39)"/><path d="M1983.79 1090.64 1865.5 887.5" stroke="#D6D6D6" stroke-width="14.8958" stroke-linecap="butt" stroke-linejoin="miter" stroke-miterlimit="8" stroke-opacity="1" fill="none" fill-rule="evenodd"/><path d="M0 0 68.5598 151.422" stroke="#D6D6D6" stroke-width="14.8958" stroke-linecap="butt" stroke-linejoin="miter" stroke-miterlimit="8" stroke-opacity="1" fill="#D6D6D6" fill-rule="evenodd" fill-opacity="1" transform="matrix(1 0 0 -1 2078.5 898.922)"/><path d="M2100.5 1041C2100.5 1034.65 2106.32 1029.5 2113.5 1029.5 2120.68 1029.5 2126.5 1034.65 2126.5 1041 2126.5 1047.35 2120.68 1052.5 2113.5 1052.5 2106.32 1052.5 2100.5 1047.35 2100.5 1041Z" stroke="#D6D6D6" stroke-width="14.8958" stroke-linecap="butt" stroke-linejoin="miter" stroke-miterlimit="8" stroke-opacity="1" fill="#FFFFFF" fill-rule="evenodd" fill-opacity="1"/><path d="M2113.26 1029.73 2087.5 895.5" stroke="#D6D6D6" stroke-width="14.8958" stroke-linecap="butt" stroke-linejoin="miter" stroke-miterlimit="8" stroke-opacity="1" fill="#D6D6D6" fill-rule="evenodd" fill-opacity="1"/><path d="M0 0 124.79 166.933" stroke="#D6D6D6" stroke-width="14.8958" stroke-linecap="butt" stroke-linejoin="miter" stroke-miterlimit="8" stroke-opacity="1" fill="#D6D6D6" fill-rule="evenodd" fill-opacity="1" transform="matrix(1 0 0 -1 2122.5 1033.43)"/><path d="M2122.5 1049.5 2280.11 1056.94" stroke="#D6D6D6" stroke-width="14.8958" stroke-linecap="butt" stroke-linejoin="miter" stroke-miterlimit="8" stroke-opacity="1" fill="#D6D6D6" fill-rule="evenodd" fill-opacity="1"/><path d="M1865.5 887.5 2065.56 887.525" stroke="#D6D6D6" stroke-width="14.8958" stroke-linecap="butt" stroke-linejoin="miter" stroke-miterlimit="8" stroke-opacity="1" fill="#D6D6D6" fill-rule="evenodd" fill-opacity="1"/><path d="M0 0 159.862 38.7515" stroke="#D6D6D6" stroke-width="14.8958" stroke-linecap="butt" stroke-linejoin="miter" stroke-miterlimit="8" stroke-opacity="1" fill="#D6D6D6" fill-rule="evenodd" fill-opacity="1" transform="matrix(-1 0 0 1 2247.36 849.5)"/><path d="M0 0 96.97 115.801" stroke="#D6D6D6" stroke-width="14.8958" stroke-linecap="butt" stroke-linejoin="miter" stroke-miterlimit="8" stroke-opacity="1" fill="none" fill-rule="evenodd" transform="matrix(1 0 0 -1 1964.5 724.301)"/><path d="M1942.5 732.5C1942.5 725.873 1948.32 720.5 1955.5 720.5 1962.68 720.5 1968.5 725.873 1968.5 732.5 1968.5 739.127 1962.68 744.5 1955.5 744.5 1948.32 744.5 1942.5 739.127 1942.5 732.5Z" stroke="#D6D6D6" stroke-width="14.8958" stroke-linecap="butt" stroke-linejoin="miter" stroke-miterlimit="8" stroke-opacity="1" fill="#FFFFFF" fill-rule="evenodd" fill-opacity="1"/><path d="M0 0 99.2162 146.549" stroke="#D6D6D6" stroke-width="14.8958" stroke-linecap="butt" stroke-linejoin="miter" stroke-miterlimit="8" stroke-opacity="1" fill="none" fill-rule="evenodd" transform="matrix(1 0 0 -1 1865.5 871.049)"/><path d="M0 0 173.713 6.33294" stroke="#D6D6D6" stroke-width="14.8958" stroke-linecap="butt" stroke-linejoin="miter" stroke-miterlimit="8" stroke-opacity="1" fill="none" fill-rule="evenodd" transform="matrix(1 0 0 -1 1964.5 724.833)"/><path d="M0 0 85.6232 188.209" stroke="#D6D6D6" stroke-width="14.8958" stroke-linecap="butt" stroke-linejoin="miter" stroke-miterlimit="8" stroke-opacity="1" fill="none" fill-rule="evenodd" transform="matrix(1 0 0 -1 1992.5 1086.71)"/><path d="M2841.5 887C2841.5 880.649 2847.32 875.5 2854.5 875.5 2861.68 875.5 2867.5 880.649 2867.5 887 2867.5 893.351 2861.68 898.5 2854.5 898.5 2847.32 898.5 2841.5 893.351 2841.5 887Z" stroke="#D6D6D6" stroke-width="14.8958" stroke-linecap="butt" stroke-linejoin="miter" stroke-miterlimit="8" stroke-opacity="1" fill="#FFFFFF" fill-rule="evenodd" fill-opacity="1"/><path d="M2763.5 894C2763.5 887.649 2769.32 882.5 2776.5 882.5 2783.68 882.5 2789.5 887.649 2789.5 894 2789.5 900.351 2783.68 905.5 2776.5 905.5 2769.32 905.5 2763.5 900.351 2763.5 894Z" stroke="#D6D6D6" stroke-width="14.8958" stroke-linecap="butt" stroke-linejoin="miter" stroke-miterlimit="8" stroke-opacity="1" fill="#FFFFFF" fill-rule="evenodd" fill-opacity="1"/><path d="M0 0 58.4599 96.446" stroke="#D6D6D6" stroke-width="14.8958" stroke-linecap="butt" stroke-linejoin="miter" stroke-miterlimit="8" stroke-opacity="1" fill="none" fill-rule="evenodd" transform="matrix(-1 0 0 1 2776.96 882.5)"/><path d="M0 0 104.903 139.016" stroke="#D6D6D6" stroke-width="14.8958" stroke-linecap="butt" stroke-linejoin="miter" stroke-miterlimit="8" stroke-opacity="1" fill="none" fill-rule="evenodd" transform="matrix(-1 0 0 1 2879.4 1081.5)"/><path d="M0 0 55.8809 141.273" stroke="#D6D6D6" stroke-width="14.8958" stroke-linecap="butt" stroke-linejoin="miter" stroke-miterlimit="8" stroke-opacity="1" fill="#D6D6D6" fill-rule="evenodd" fill-opacity="1" transform="matrix(1 0 0 -1 2798.5 1039.77)"/><path d="M0 0 51.5073 6.85479" stroke="#D6D6D6" stroke-width="14.8958" stroke-linecap="butt" stroke-linejoin="miter" stroke-miterlimit="8" stroke-opacity="1" fill="#D6D6D6" fill-rule="evenodd" fill-opacity="1" transform="matrix(1 0 0 -1 2789.5 894.355)"/><path d="M2707.5 987.5 2791.61 1030.84" stroke="#D6D6D6" stroke-width="14.8958" stroke-linecap="butt" stroke-linejoin="miter" stroke-miterlimit="8" stroke-opacity="1" fill="none" fill-rule="evenodd"/><path d="M2788.5 1039C2788.5 1032.65 2794.32 1027.5 2801.5 1027.5 2808.68 1027.5 2814.5 1032.65 2814.5 1039 2814.5 1045.35 2808.68 1050.5 2801.5 1050.5 2794.32 1050.5 2788.5 1045.35 2788.5 1039Z" stroke="#D6D6D6" stroke-width="14.8958" stroke-linecap="butt" stroke-linejoin="miter" stroke-miterlimit="8" stroke-opacity="1" fill="#FFFFFF" fill-rule="evenodd" fill-opacity="1"/><path d="M2654.5 1372C2654.5 1365.65 2660.32 1360.5 2667.5 1360.5 2674.68 1360.5 2680.5 1365.65 2680.5 1372 2680.5 1378.35 2674.68 1383.5 2667.5 1383.5 2660.32 1383.5 2654.5 1378.35 2654.5 1372Z" stroke="#D6D6D6" stroke-width="14.8958" stroke-linecap="butt" stroke-linejoin="miter" stroke-miterlimit="8" stroke-opacity="1" fill="#FFFFFF" fill-rule="evenodd" fill-opacity="1"/><path d="M2756.5 1222C2756.5 1215.65 2762.54 1210.5 2770 1210.5 2777.46 1210.5 2783.5 1215.65 2783.5 1222 2783.5 1228.35 2777.46 1233.5 2770 1233.5 2762.54 1233.5 2756.5 1228.35 2756.5 1222Z" stroke="#D6D6D6" stroke-width="14.8958" stroke-linecap="butt" stroke-linejoin="miter" stroke-miterlimit="8" stroke-opacity="1" fill="#FFFFFF" fill-rule="evenodd" fill-opacity="1"/><path d="M2804.5 1247C2804.5 1240.65 2810.54 1235.5 2818 1235.5 2825.46 1235.5 2831.5 1240.65 2831.5 1247 2831.5 1253.35 2825.46 1258.5 2818 1258.5 2810.54 1258.5 2804.5 1253.35 2804.5 1247Z" stroke="#D6D6D6" stroke-width="14.8958" stroke-linecap="butt" stroke-linejoin="miter" stroke-miterlimit="8" stroke-opacity="1" fill="#FFFFFF" fill-rule="evenodd" fill-opacity="1"/><path d="M2479.5 1403.5 2692.81 1477.32" stroke="#D6D6D6" stroke-width="14.8958" stroke-linecap="butt" stroke-linejoin="miter" stroke-miterlimit="8" stroke-opacity="1" fill="#D6D6D6" fill-rule="evenodd" fill-opacity="1"/><path d="M2479.5 1404C2479.5 1397.65 2485.32 1392.5 2492.5 1392.5 2499.68 1392.5 2505.5 1397.65 2505.5 1404 2505.5 1410.35 2499.68 1415.5 2492.5 1415.5 2485.32 1415.5 2479.5 1410.35 2479.5 1404Z" stroke="#D6D6D6" stroke-width="14.8958" stroke-linecap="butt" stroke-linejoin="miter" stroke-miterlimit="8" stroke-opacity="1" fill="#FFFFFF" fill-rule="evenodd" fill-opacity="1"/><path d="M0 0 152.576 23.9221" stroke="#D6D6D6" stroke-width="14.8958" stroke-linecap="butt" stroke-linejoin="miter" stroke-miterlimit="8" stroke-opacity="1" fill="none" fill-rule="evenodd" transform="matrix(1 0 0 -1 2505.5 1403.42)"/><path d="M0 0 131.776 108.227" stroke="#D6D6D6" stroke-width="14.8958" stroke-linecap="butt" stroke-linejoin="miter" stroke-miterlimit="8" stroke-opacity="1" fill="#D6D6D6" fill-rule="evenodd" fill-opacity="1" transform="matrix(1 0 0 -1 2676.5 1363.73)"/><path d="M0 0 102.399 149.595" stroke="#D6D6D6" stroke-width="14.8958" stroke-linecap="butt" stroke-linejoin="miter" stroke-miterlimit="8" stroke-opacity="1" fill="none" fill-rule="evenodd" transform="matrix(1 0 0 -1 2676.5 1363.1)"/><path d="M2479.61 1404.02 2250.5 1344.5" stroke="#D6D6D6" stroke-width="14.8958" stroke-linecap="butt" stroke-linejoin="miter" stroke-miterlimit="8" stroke-opacity="1" fill="none" fill-rule="evenodd"/><path d="M2657.88 1363.18 2579.5 1288.5" stroke="#D6D6D6" stroke-width="14.8958" stroke-linecap="butt" stroke-linejoin="miter" stroke-miterlimit="8" stroke-opacity="1" fill="none" fill-rule="evenodd"/><path d="M0 0 73.1237 121.046" stroke="#D6D6D6" stroke-width="14.8958" stroke-linecap="butt" stroke-linejoin="miter" stroke-miterlimit="8" stroke-opacity="1" fill="none" fill-rule="evenodd" transform="matrix(1 0 0 -1 2501.5 1395.55)"/><path d="M2634.5 1095C2634.5 1088.65 2640.54 1083.5 2648 1083.5 2655.46 1083.5 2661.5 1088.65 2661.5 1095 2661.5 1101.35 2655.46 1106.5 2648 1106.5 2640.54 1106.5 2634.5 1101.35 2634.5 1095Z" stroke="#D6D6D6" stroke-width="14.8958" stroke-linecap="butt" stroke-linejoin="miter" stroke-miterlimit="8" stroke-opacity="1" fill="#FFFFFF" fill-rule="evenodd" fill-opacity="1"/><path d="M0 0 31.4575 183.512" stroke="#D6D6D6" stroke-width="14.8958" stroke-linecap="butt" stroke-linejoin="miter" stroke-miterlimit="8" stroke-opacity="1" fill="none" fill-rule="evenodd" transform="matrix(-1 0 0 1 2800.96 1027.5)"/><path d="M2800.86 1050.45 2785.5 902.5" stroke="#D6D6D6" stroke-width="14.8958" stroke-linecap="butt" stroke-linejoin="miter" stroke-miterlimit="8" stroke-opacity="1" fill="#D6D6D6" fill-rule="evenodd" fill-opacity="1"/><path d="M2875.22 1072.68 2810.5 1046.5" stroke="#D6D6D6" stroke-width="14.8958" stroke-linecap="butt" stroke-linejoin="miter" stroke-miterlimit="8" stroke-opacity="1" fill="#D6D6D6" fill-rule="evenodd" fill-opacity="1"/><path d="M0 0 130.767 48.5812" stroke="#D6D6D6" stroke-width="14.8958" stroke-linecap="butt" stroke-linejoin="miter" stroke-miterlimit="8" stroke-opacity="1" fill="none" fill-rule="evenodd" transform="matrix(-1 0 0 1 2792.27 1046.5)"/><path d="M2557.5 1281C2557.5 1274.65 2563.32 1269.5 2570.5 1269.5 2577.68 1269.5 2583.5 1274.65 2583.5 1281 2583.5 1287.35 2577.68 1292.5 2570.5 1292.5 2563.32 1292.5 2557.5 1287.35 2557.5 1281Z" stroke="#D6D6D6" stroke-width="14.8958" stroke-linecap="butt" stroke-linejoin="miter" stroke-miterlimit="8" stroke-opacity="1" fill="#FFFFFF" fill-rule="evenodd" fill-opacity="1"/><path d="M0 0 173.059 58.6104" stroke="#D6D6D6" stroke-width="14.8958" stroke-linecap="butt" stroke-linejoin="miter" stroke-miterlimit="8" stroke-opacity="1" fill="#D6D6D6" fill-rule="evenodd" fill-opacity="1" transform="matrix(1 0 0 -1 2583.5 1281.11)"/><path d="M0 0 86.3994 178.916" stroke="#D6D6D6" stroke-width="14.8958" stroke-linecap="butt" stroke-linejoin="miter" stroke-miterlimit="8" stroke-opacity="1" fill="none" fill-rule="evenodd" transform="matrix(-1 0 0 1 2660.9 1095.5)"/><path d="M2452.5 1199C2452.5 1192.65 2458.54 1187.5 2466 1187.5 2473.46 1187.5 2479.5 1192.65 2479.5 1199 2479.5 1205.35 2473.46 1210.5 2466 1210.5 2458.54 1210.5 2452.5 1205.35 2452.5 1199Z" stroke="#D6D6D6" stroke-width="14.8958" stroke-linecap="butt" stroke-linejoin="miter" stroke-miterlimit="8" stroke-opacity="1" fill="#FFFFFF" fill-rule="evenodd" fill-opacity="1"/><path d="M2250.5 1344C2250.5 1337.65 2256.32 1332.5 2263.5 1332.5 2270.68 1332.5 2276.5 1337.65 2276.5 1344 2276.5 1350.35 2270.68 1355.5 2263.5 1355.5 2256.32 1355.5 2250.5 1350.35 2250.5 1344Z" stroke="#D6D6D6" stroke-width="14.8958" stroke-linecap="butt" stroke-linejoin="miter" stroke-miterlimit="8" stroke-opacity="1" fill="#FFFFFF" fill-rule="evenodd" fill-opacity="1"/><path d="M0 0 166.046 100.358" stroke="#D6D6D6" stroke-width="14.8958" stroke-linecap="butt" stroke-linejoin="miter" stroke-miterlimit="8" stroke-opacity="1" fill="#D6D6D6" fill-rule="evenodd" fill-opacity="1" transform="matrix(-1 0 0 1 2645.55 1098.5)"/><path d="M0 0 280.826 63.5394" stroke="#D6D6D6" stroke-width="14.8958" stroke-linecap="butt" stroke-linejoin="miter" stroke-miterlimit="8" stroke-opacity="1" fill="none" fill-rule="evenodd" transform="matrix(-1 0 0 1 2557.33 1280.5)"/><path d="M0 0 205.603 140.886" stroke="#D6D6D6" stroke-width="14.8958" stroke-linecap="butt" stroke-linejoin="miter" stroke-miterlimit="8" stroke-opacity="1" fill="none" fill-rule="evenodd" transform="matrix(-1 0 0 1 2469.1 1205.5)"/><path d="M2561.27 1272.65 2475.5 1207.5" stroke="#D6D6D6" stroke-width="14.8958" stroke-linecap="butt" stroke-linejoin="miter" stroke-miterlimit="8" stroke-opacity="1" fill="none" fill-rule="evenodd"/><path d="M0 0 205.682 9.81519" stroke="#D6D6D6" stroke-width="14.8958" stroke-linecap="butt" stroke-linejoin="miter" stroke-miterlimit="8" stroke-opacity="1" fill="none" fill-rule="evenodd" transform="matrix(1 0 0 -1 2429.5 1105.32)"/><path d="M0 8.99993C-2.92821e-15 4.02941 5.14873-1.14581e-15 11.5-1.14581e-15 17.8513-2.29162e-15 23 4.02941 23 8.99993 23 13.9705 17.8513 17.9999 11.5 17.9999 5.14873 17.9999-5.85642e-15 13.9705 0 8.99993Z" stroke="#D6D6D6" stroke-width="14.8958" stroke-linecap="butt" stroke-linejoin="miter" stroke-miterlimit="8" stroke-opacity="1" fill="#FFFFFF" fill-rule="evenodd" fill-opacity="1" transform="matrix(1 0 0 -1 2406.5 1114.5)"/><path d="M2253.6 1336.55 2194.5 1244.5" stroke="#D6D6D6" stroke-width="14.8958" stroke-linecap="butt" stroke-linejoin="miter" stroke-miterlimit="8" stroke-opacity="1" fill="#D6D6D6" fill-rule="evenodd" fill-opacity="1"/><path d="M0 0 51.4907 88.5616" stroke="#D6D6D6" stroke-width="14.8958" stroke-linecap="butt" stroke-linejoin="miter" stroke-miterlimit="8" stroke-opacity="1" fill="none" fill-rule="evenodd" transform="matrix(-1 0 0 1 2705.99 995.5)"/><path d="M2695.5 987C2695.5 980.649 2701.54 975.5 2709 975.5 2716.46 975.5 2722.5 980.649 2722.5 987 2722.5 993.351 2716.46 998.5 2709 998.5 2701.54 998.5 2695.5 993.351 2695.5 987Z" stroke="#D6D6D6" stroke-width="14.8958" stroke-linecap="butt" stroke-linejoin="miter" stroke-miterlimit="8" stroke-opacity="1" fill="#FFFFFF" fill-rule="evenodd" fill-opacity="1"/><path d="M2774.5 1223.5 2808.74 1238.66" stroke="#D6D6D6" stroke-width="14.8958" stroke-linecap="butt" stroke-linejoin="miter" stroke-miterlimit="8" stroke-opacity="1" fill="none" fill-rule="evenodd"/><path d="M2657.5 1103.5 2760.67 1213.98" stroke="#D6D6D6" stroke-width="14.8958" stroke-linecap="butt" stroke-linejoin="miter" stroke-miterlimit="8" stroke-opacity="1" fill="none" fill-rule="evenodd"/><path d="M2696.21 987.325 2489.5 841.5" stroke="#D6D6D6" stroke-width="14.8958" stroke-linecap="butt" stroke-linejoin="miter" stroke-miterlimit="8" stroke-opacity="1" fill="none" fill-rule="evenodd"/><path d="M0 0 147.304 48.7237" stroke="#D6D6D6" stroke-width="14.8958" stroke-linecap="butt" stroke-linejoin="miter" stroke-miterlimit="8" stroke-opacity="1" fill="none" fill-rule="evenodd" transform="matrix(-1 0 0 1 2565.8 1053.5)"/><path d="M2475.67 1207.06 2419.5 1106.5" stroke="#D6D6D6" stroke-width="14.8958" stroke-linecap="butt" stroke-linejoin="miter" stroke-miterlimit="8" stroke-opacity="1" fill="none" fill-rule="evenodd"/><path d="M2558.5 1054C2558.5 1047.65 2564.54 1042.5 2572 1042.5 2579.46 1042.5 2585.5 1047.65 2585.5 1054 2585.5 1060.35 2579.46 1065.5 2572 1065.5 2564.54 1065.5 2558.5 1060.35 2558.5 1054Z" stroke="#D6D6D6" stroke-width="14.8958" stroke-linecap="butt" stroke-linejoin="miter" stroke-miterlimit="8" stroke-opacity="1" fill="#FFFFFF" fill-rule="evenodd" fill-opacity="1"/><path d="M2581.5 1050.5 2638.6 1086.83" stroke="#D6D6D6" stroke-width="14.8958" stroke-linecap="butt" stroke-linejoin="miter" stroke-miterlimit="8" stroke-opacity="1" fill="none" fill-rule="evenodd"/><path d="M0 0 118.416 50.2084" stroke="#D6D6D6" stroke-width="14.8958" stroke-linecap="butt" stroke-linejoin="miter" stroke-miterlimit="8" stroke-opacity="1" fill="none" fill-rule="evenodd" transform="matrix(-1 0 0 1 2699.92 995.5)"/><path d="M2485.5 849C2485.5 842.649 2491.32 837.5 2498.5 837.5 2505.68 837.5 2511.5 842.649 2511.5 849 2511.5 855.351 2505.68 860.5 2498.5 860.5 2491.32 860.5 2485.5 855.351 2485.5 849Z" stroke="#D6D6D6" stroke-width="14.8958" stroke-linecap="butt" stroke-linejoin="miter" stroke-miterlimit="8" stroke-opacity="1" fill="#FFFFFF" fill-rule="evenodd" fill-opacity="1"/><path d="M2426.1 1111.15 2284.5 1064.5" stroke="#D6D6D6" stroke-width="14.8958" stroke-linecap="butt" stroke-linejoin="miter" stroke-miterlimit="8" stroke-opacity="1" fill="none" fill-rule="evenodd"/><path d="M0 0 218.864 0.349705" stroke="#D6D6D6" stroke-width="14.8958" stroke-linecap="butt" stroke-linejoin="miter" stroke-miterlimit="8" stroke-opacity="1" fill="none" fill-rule="evenodd" transform="matrix(-1 0 0 1 2489.36 857.5)"/><path d="M0 0 76.2706 151.328" stroke="#D6D6D6" stroke-width="14.8958" stroke-linecap="butt" stroke-linejoin="miter" stroke-miterlimit="8" stroke-opacity="1" fill="none" fill-rule="evenodd" transform="matrix(1 0 0 -1 2194.5 1227.83)"/><path d="M2572.13 1065.21 2495.5 849.5" stroke="#D6D6D6" stroke-width="14.8958" stroke-linecap="butt" stroke-linejoin="miter" stroke-miterlimit="8" stroke-opacity="1" fill="none" fill-rule="evenodd"/><path d="M2258.5 1065C2258.5 1058.65 2264.32 1053.5 2271.5 1053.5 2278.68 1053.5 2284.5 1058.65 2284.5 1065 2284.5 1071.35 2278.68 1076.5 2271.5 1076.5 2264.32 1076.5 2258.5 1071.35 2258.5 1065Z" stroke="#D6D6D6" stroke-width="14.8958" stroke-linecap="butt" stroke-linejoin="miter" stroke-miterlimit="8" stroke-opacity="1" fill="#FFFFFF" fill-rule="evenodd" fill-opacity="1"/><path d="M2270.7 1053.43 2256.5 869.5" stroke="#D6D6D6" stroke-width="14.8958" stroke-linecap="butt" stroke-linejoin="miter" stroke-miterlimit="8" stroke-opacity="1" fill="#D6D6D6" fill-rule="evenodd" fill-opacity="1"/><path d="M2399.5 958C2399.5 951.649 2405.32 946.5 2412.5 946.5 2419.68 946.5 2425.5 951.649 2425.5 958 2425.5 964.351 2419.68 969.5 2412.5 969.5 2405.32 969.5 2399.5 964.351 2399.5 958Z" stroke="#D6D6D6" stroke-width="14.8958" stroke-linecap="butt" stroke-linejoin="miter" stroke-miterlimit="8" stroke-opacity="1" fill="#FFFFFF" fill-rule="evenodd" fill-opacity="1"/><path d="M2399.38 958.233 2266.5 866.5" stroke="#D6D6D6" stroke-width="14.8958" stroke-linecap="butt" stroke-linejoin="miter" stroke-miterlimit="8" stroke-opacity="1" fill="none" fill-rule="evenodd"/><path d="M0 0 141.161 84.0435" stroke="#D6D6D6" stroke-width="14.8958" stroke-linecap="butt" stroke-linejoin="miter" stroke-miterlimit="8" stroke-opacity="1" fill="none" fill-rule="evenodd" transform="matrix(1 0 0 -1 2271.5 1053.54)"/><path d="M2413.57 1100.84 2412.5 969.5" stroke="#D6D6D6" stroke-width="14.8958" stroke-linecap="butt" stroke-linejoin="miter" stroke-miterlimit="8" stroke-opacity="1" fill="none" fill-rule="evenodd"/><path d="M2572.01 1042.24 2412.5 969.5" stroke="#D6D6D6" stroke-width="14.8958" stroke-linecap="butt" stroke-linejoin="miter" stroke-miterlimit="8" stroke-opacity="1" fill="none" fill-rule="evenodd"/><path d="M0 0 87.7066 97.9899" stroke="#D6D6D6" stroke-width="14.8958" stroke-linecap="butt" stroke-linejoin="miter" stroke-miterlimit="8" stroke-opacity="1" fill="none" fill-rule="evenodd" transform="matrix(-1 0 0 1 2498.21 860.5)"/><path d="M2243.5 858C2243.5 851.649 2249.54 846.5 2257 846.5 2264.46 846.5 2270.5 851.649 2270.5 858 2270.5 864.351 2264.46 869.5 2257 869.5 2249.54 869.5 2243.5 864.351 2243.5 858Z" stroke="#D6D6D6" stroke-width="14.8958" stroke-linecap="butt" stroke-linejoin="miter" stroke-miterlimit="8" stroke-opacity="1" fill="#FFFFFF" fill-rule="evenodd" fill-opacity="1"/><path d="M2679.5 1474C2679.5 1467.65 2685.32 1462.5 2692.5 1462.5 2699.68 1462.5 2705.5 1467.65 2705.5 1474 2705.5 1480.35 2699.68 1485.5 2692.5 1485.5 2685.32 1485.5 2679.5 1480.35 2679.5 1474Z" stroke="#D6D6D6" stroke-width="14.8958" stroke-linecap="butt" stroke-linejoin="miter" stroke-miterlimit="8" stroke-opacity="1" fill="#FFFFFF" fill-rule="evenodd" fill-opacity="1"/><path d="M2676.5 1379.5 2775.73 1465.46" stroke="#D6D6D6" stroke-width="14.8958" stroke-linecap="butt" stroke-linejoin="miter" stroke-miterlimit="8" stroke-opacity="1" fill="#FFFFFF" fill-rule="evenodd" fill-opacity="1"/><path d="M1808.17 803.921 1665.5 767.5" stroke="#D6D6D6" stroke-width="14.8958" stroke-linecap="butt" stroke-linejoin="miter" stroke-miterlimit="8" stroke-opacity="1" fill="#D6D6D6" fill-rule="evenodd" fill-opacity="1"/><path d="M1842.5 879C1842.5 872.649 1848.54 867.5 1856 867.5 1863.46 867.5 1869.5 872.649 1869.5 879 1869.5 885.351 1863.46 890.5 1856 890.5 1848.54 890.5 1842.5 885.351 1842.5 879Z" stroke="#D6D6D6" stroke-width="14.8958" stroke-linecap="butt" stroke-linejoin="miter" stroke-miterlimit="8" stroke-opacity="1" fill="#FFFFFF" fill-rule="evenodd" fill-opacity="1"/><path d="M2065.5 887C2065.5 880.649 2071.32 875.5 2078.5 875.5 2085.68 875.5 2091.5 880.649 2091.5 887 2091.5 893.351 2085.68 898.5 2078.5 898.5 2071.32 898.5 2065.5 893.351 2065.5 887Z" stroke="#D6D6D6" stroke-width="14.8958" stroke-linecap="butt" stroke-linejoin="miter" stroke-miterlimit="8" stroke-opacity="1" fill="#FFFFFF" fill-rule="evenodd" fill-opacity="1"/><path d="M1979.5 1098.5C1979.5 1091.87 1985.54 1086.5 1993 1086.5 2000.46 1086.5 2006.5 1091.87 2006.5 1098.5 2006.5 1105.13 2000.46 1110.5 1993 1110.5 1985.54 1110.5 1979.5 1105.13 1979.5 1098.5Z" stroke="#D6D6D6" stroke-width="14.8958" stroke-linecap="butt" stroke-linejoin="miter" stroke-miterlimit="8" stroke-opacity="1" fill="#FFFFFF" fill-rule="evenodd" fill-opacity="1"/><path d="M2705.5 1473.5 2798.28 1473.78" stroke="#D6D6D6" stroke-width="14.8958" stroke-linecap="butt" stroke-linejoin="miter" stroke-miterlimit="8" stroke-opacity="1" fill="#D6D6D6" fill-rule="evenodd" fill-opacity="1"/><path d="M2772.5 1474C2772.5 1467.65 2778.32 1462.5 2785.5 1462.5 2792.68 1462.5 2798.5 1467.65 2798.5 1474 2798.5 1480.35 2792.68 1485.5 2785.5 1485.5 2778.32 1485.5 2772.5 1480.35 2772.5 1474Z" stroke="#D6D6D6" stroke-width="14.8958" stroke-linecap="butt" stroke-linejoin="miter" stroke-miterlimit="8" stroke-opacity="1" fill="#FFFFFF" fill-rule="evenodd" fill-opacity="1"/><path d="M2492.5 625C2492.5 618.649 2498.32 613.5 2505.5 613.5 2512.68 613.5 2518.5 618.649 2518.5 625 2518.5 631.351 2512.68 636.5 2505.5 636.5 2498.32 636.5 2492.5 631.351 2492.5 625Z" stroke="#D6D6D6" stroke-width="14.8958" stroke-linecap="butt" stroke-linejoin="miter" stroke-miterlimit="8" stroke-opacity="1" fill="#FFFFFF" fill-rule="evenodd" fill-opacity="1"/><path d="M2290.5 592C2290.5 585.649 2296.32 580.5 2303.5 580.5 2310.68 580.5 2316.5 585.649 2316.5 592 2316.5 598.351 2310.68 603.5 2303.5 603.5 2296.32 603.5 2290.5 598.351 2290.5 592Z" stroke="#D6D6D6" stroke-width="14.8958" stroke-linecap="butt" stroke-linejoin="miter" stroke-miterlimit="8" stroke-opacity="1" fill="#FFFFFF" fill-rule="evenodd" fill-opacity="1"/><path d="M2422.1 743.609 2294.5 583.5" stroke="#D6D6D6" stroke-width="14.8958" stroke-linecap="butt" stroke-linejoin="miter" stroke-miterlimit="8" stroke-opacity="1" fill="#FFFFFF" fill-rule="evenodd" fill-opacity="1"/><path d="M1856.07 867.908 1826.5 820.5" stroke="#D6D6D6" stroke-width="14.8958" stroke-linecap="butt" stroke-linejoin="miter" stroke-miterlimit="8" stroke-opacity="1" fill="#D6D6D6" fill-rule="evenodd" fill-opacity="1"/><path d="M0 0 154.432 95.7794" stroke="#D6D6D6" stroke-width="14.8958" stroke-linecap="butt" stroke-linejoin="miter" stroke-miterlimit="8" stroke-opacity="1" fill="#D6D6D6" fill-rule="evenodd" fill-opacity="1" transform="matrix(-1 0 0 1 2068.93 895.5)"/><path d="M1909.5 988C1909.5 981.649 1915.32 976.5 1922.5 976.5 1929.68 976.5 1935.5 981.649 1935.5 988 1935.5 994.351 1929.68 999.5 1922.5 999.5 1915.32 999.5 1909.5 994.351 1909.5 988Z" stroke="#D6D6D6" stroke-width="14.8958" stroke-linecap="butt" stroke-linejoin="miter" stroke-miterlimit="8" stroke-opacity="1" fill="#FFFFFF" fill-rule="evenodd" fill-opacity="1"/><path d="M0 0 138.98 47.3505" stroke="#D6D6D6" stroke-width="14.8958" stroke-linecap="butt" stroke-linejoin="miter" stroke-miterlimit="8" stroke-opacity="1" fill="#D6D6D6" fill-rule="evenodd" fill-opacity="1" transform="matrix(-1 0 0 1 1913.48 996.5)"/></g></g></svg>