<?xml version="1.0" encoding="UTF-8"?>
<svg width="1200pt" height="1200pt" version="1.1" viewBox="0 0 1200 1200" xmlns="http://www.w3.org/2000/svg">
 <path d="m1013.4 557.81c-10.875-6.1875-22.5-10.125-35.062-11.625-31.688-3.5625-56.812-14.062-74.625-31.312l-13.312-12.562c0.9375-2.8125 1.875-5.8125 2.4375-8.8125 32.625-4.875 51 20.25 80.625 22.688 31.688 3 63.188-14.812 76.688-43.5 32.812-66.75-43.688-139.13-108-98.438-17.812 9.1875-26.438 31.875-48.75 31.875-15.75 1.125-27-9-37.5-18.938 11.062-32.438 36.375-53.438 55.875-65.25 60.188-34.125 56.812-131.06-5.625-161.06-49.5-27.562-116.62 0-132.19 54.188-7.3125 23.25-5.25 48.188 5.8125 69.938 11.812 23.062 13.5 51.375 5.25 80.062-24.75 6.1875-53.438-3.375-55.688-32.25-0.5625-6.9375-2.4375-14.438-4.875-21.375-14.625-46.125-69.188-66-109.69-42.188-51.188 27-50.812 106.88 0.375 133.87 24.375 13.5 59.625 9.75 78.938 27.75-1.125 2.8125-2.25 5.625-3 8.625 0 0-17.812 2.8125-17.812 2.8125-24.75 3.75-51.375-2.25-79.5-17.438-10.688-5.8125-22.688-9.375-35.062-10.5-69.188-9.375-125.06 70.688-93 132.56 28.688 62.812 114 69.375 157.31 15.938 15.375-18.188 40.125-40.5 73.5-48.75 2.8125 6 6.1875 11.812 10.312 17.25 13.125 16.5 7.5 40.875-12.375 49.875-50.25 28.125-47.25 108.19 4.3125 133.5 65.625 35.625 140.06-37.688 104.06-103.88-8.25-19.875 3.9375-35.625 21.188-42.375 6.375-2.0625 12.562-4.875 18.375-8.25 32.812 37.312 27.375 70.688 38.25 108.56 18 55.875 82.875 79.5 132 51 61.875-32.438 62.25-129.37 0.375-161.81zm-418.31-19.5c11.438-19.688-16.688-38.625-30.75-20.625-8.25 10.5-23.812 5.8125-24.75 5.4375-17.062-6.375-32.25 15.75-20.25 29.25-47.625-30.75-19.875-107.06 36.188-101.06 7.6875 0.75 14.625 2.8125 21 6.1875 37.688 20.438 73.312 27.188 109.12 20.438-33.75 9-64.688 29.625-90.375 60zm215.06-312c8.0625-27.375 39.188-44.812 66.562-36.938-15.75 2.625-20.438 25.312-6.75 33.938 0.5625 0.375 14.062 9.75 11.062 22.875-5.25 21.75 26.25 32.625 35.062 11.812-3.75 13.5-11.812 24.75-23.625 32.062-33 20.25-56.625 47.062-69.188 78.375 8.8125-35.625 5.4375-70.875-9.75-100.5-6.5625-12.938-7.875-27.75-3.5625-41.625zm47.812 249.19c0.75 14.812-16.125 30.375-3.75 43.688-15.562-8.625-27 10.312-41.438 13.5-39.188 12.188-62.25 59.625-42 96.375 18.188 32.812-21.562 71.25-54 52.312-26.25-12.938-27.938-54-2.0625-68.438 37.312-19.5 49.5-68.25 22.875-104.06-9.9375-10.875-8.4375-33-26.062-34.875 12.375-2.625 14.25-14.438 16.125-24.938 1.5-4.6875 3.5625-9.1875 6-13.5 5.8125-9.375 1.5-20.625-6.9375-26.812-19.5-18.562-45.75-30-78.188-33.75-4.875-0.5625-9.75-2.0625-14.625-4.875-41.812-24.375-11.438-88.312 33.938-71.25 13.125 4.125 24 23.438 24.75 37.5 1.6875 20.25 12.188 39.188 28.5 51.75 21.938 18.938 49.875 15.375 76.5 14.062 7.5 0.75 14.438-3.1875 18-9.5625-0.75 7.3125 2.8125 14.438 9.375 18.188 21 16.312 41.812 35.625 70.688 32.438 20.625-0.9375 40.125-10.5 53.438-26.438 9.375-11.25 27.938-20.25 42-15.938 23.625 5.8125 36.938 33.562 25.688 55.5-9.375 20.625-37.875 29.062-56.625 16.125-22.5-14.625-51.562-20.062-81.75-15.375-10.312 0.375-19.688 7.3125-20.25 18zm79.312 209.44s0.5625 0.375 0.75 0.5625c-0.1875 0-0.5625-0.375-0.75-0.5625zm84.938-37.312c-4.125 26.438-28.312 47.062-54.938 46.312 16.688-5.0625 16.5-30.938-0.5625-35.625-0.75-0.1875-16.312-5.4375-17.062-18.75-0.5625-10.312-9.1875-18-19.875-17.625-9.1875 0.5625-15.938 7.5-17.25 16.312-3.75-39.938-17.438-74.438-40.125-101.25 25.688 26.25 58.5 41.438 101.44 46.312 30.375 3 53.812 34.125 48.188 64.125z" fill="#c2dc63"/>
 <path d="m650.06 812.44c-30.375 0.375-65.438 22.688-92.812 11.625l-11.812-3.1875c0-0.75-0.375-1.6875-0.5625-2.4375 10.5-6.1875 21.75-8.8125 32.25-8.0625 64.312 6 96.188-79.688 44.438-117.75-38.062-30-95.812-4.6875-103.5 42.562-3.375 18.188-24.75 24-40.312 17.438-3.375-24.938 5.8125-47.438 14.625-62.25 30.562-49.688-9.75-119.06-68.438-117.19-47.625-0.5625-86.25 46.5-76.312 93 3.9375 20.25 15.375 37.875 32.25 49.5 15.562 10.875 26.812 28.312 32.062 49.688-12.375 12-33.938 14.438-44.25-1.875-24.938-40.688-87-42.562-111.38-1.125-33.562 52.312 22.312 118.88 79.688 95.438 13.5-5.4375 26.062-7.3125 37.5-6.1875 0 0.75 0.1875 1.5 0.375 2.25-19.125 16.125-39.562 24.562-69.375 24.375-74.625-1.3125-107.62 98.062-46.688 141.56 45.562 35.062 112.88 5.625 123-50.812 3.5625-17.438 11.812-40.688 30-58.312 12.75 7.125 32.062 16.312 24 34.5-30.75 43.5-0.5625 105.56 53.438 105.19 63 0.75 89.625-85.312 36.188-119.62-16.875-14.25-2.0625-30.938 8.0625-43.125 34.875 14.25 42.562 38.625 64.312 60.188 35.438 34.125 93.188 25.688 118.12-15 32.812-48.75-5.4375-120.56-64.312-120zm-303.37 136.87c-9.375-12.188-30.375-6.5625-32.625 8.8125-1.3125 7.875-11.625 10.125-12.375 10.312-11.438 1.875-18.938 15-13.688 25.5-32.625-12.188-33-62.812 0-75.188 27.562-6.5625 57.75-3 80.812-17.062-9.75 13.875-17.062 29.812-22.125 47.625zm54.188-264.74c-24.938-15.938-22.312-56.625 4.3125-69.375-3.5625 10.5 5.0625 21.938 15.938 23.062 0.375 0 11.25 1.3125 13.312 9.1875 3.1875 12.938 19.875 18.188 29.812 9.75-7.875 25.125-24.75 49.312-24.562 74.812-8.8125-19.5-22.125-36-38.812-47.438zm113.25 109.31c-8.625 5.25-12.938 15.562-8.4375 24.938 1.3125 3 2.4375 6.375 3.1875 10.125 0.75 6.5625 0.1875 14.25 5.4375 19.125-9.375 4.875-10.312 17.438-18 24.188-24.562 25.125-22.5 69.938 7.5 89.625 22.312 14.25 10.312 51.562-16.125 50.625-10.688 0.75-22.125-7.5-26.25-18-5.25-12.188 1.5-23.25 7.125-33.75 13.5-28.5 0-63.375-30-77.625-9.75-3.375-15.188-14.812-25.688-15.938 3.9375-10.125-4.5-20.25-2.8125-30.75 0.5625-10.5-7.6875-18.562-17.812-20.062-21.562-5.8125-45.188-3.9375-70.5 6-3 1.3125-6.75 2.0625-10.5 1.875-50.812-5.625-21.938-80.438 18.938-47.625 3.1875 2.8125 5.0625 5.25 6.375 7.3125 19.125 30.562 64.875 37.312 92.625 14.438 6.375-5.625 16.688-6.9375 20.438-15.188 3.1875 2.8125 7.3125 4.5 11.812 4.6875 21.75 3.9375 44.25 8.8125 64.125-4.5 23.062-13.5 24.562-29.812 34.125-53.062 12.938-24.375 50.438-13.312 50.625 13.125 1.125 15.938-13.875 30.75-29.812 29.062-22.312-2.0625-45.938 5.625-66 21zm168.56 118.5c-1.875 2.8125-3.9375 5.25-6.375 7.6875 1.3125-11.625-10.688-21.375-21.938-18.938-0.5625 0-11.062 1.875-15.375-5.0625-7.6875-13.312-29.062-11.062-33.375 3.75-11.062-14.625-23.812-26.812-38.062-36 26.438 4.6875 53.625-10.125 81.562-13.875 30.562-0.1875 50.438 37.312 33.375 62.438z" fill="#c2dc63"/>
 <path d="m270.56 425.44c11.25-8.0625 18.562-20.25 20.625-34.312 2.25-9.375 13.5-7.125 20.25-4.6875-0.1875 24.375-12.75 35.062-19.312 54.75-5.4375 18-3.375 36.562 6 51 41.625 63.188 138 11.25 108.38-58.125-7.875-18.562-31.875-32.812-35.062-51.938 18.188 53.812 90.188 56.062 104.62-0.5625 8.8125-37.688-29.25-71.062-66-60.562-9.9375 1.6875-15.562-4.875-16.688-13.312 13.312-7.3125 28.125-8.0625 38.812-7.125 18.375 1.5 36.188-5.25 49.312-18.75 32.812-32.25 15.188-93-29.625-102.56-33.75-9.1875-70.688 15-75.75 49.688-1.875 11.062-8.25 21.938-18 30.75-7.875-3.75-12.375-11.062-7.3125-20.438 20.812-31.875 0.75-77.438-37.5-80.812-48.938-6.9375-78.562 57.562-42 90.375 2.625 2.625 5.0625 5.0625 7.125 7.6875-16.125-9.375-21.75-34.875-36.75-47.812-57.188-49.5-136.13 26.062-88.688 85.312 10.875 13.312 27.938 21 46.5 21.375 19.5 0 35.812-8.8125 58.125-1.6875 0 6.9375-0.5625 17.25-9.375 17.625h-5.0625c-39-4.875-69.938 40.125-51.562 75 13.312 29.062 52.875 39 78.375 19.688zm148.87-68.25c32.25-6.1875 22.312 42-4.5 24.938-6.1875-6.9375-7.5-16.875-14.25-23.812 6.1875 0.9375 12.562 0.5625 18.75-0.9375zm-5.8125-122.26c10.125-40.688 67.688-12 41.438 20.625-13.875 14.062-36 3.375-52.5 9.375 5.625-9.375 9.375-19.5 11.062-30zm-41.25 214.31c11.812 26.812-27 47.438-42.562 22.688-10.875-19.125 12.188-39.188 15-57.562 6 12.75 19.875 22.125 27.562 34.875zm-75-249.56c11.25-10.875 29.25 0.375 23.812 15-3.375 8.4375-8.0625 14.438-9 23.625-4.125-6-9-11.625-15-17.25-5.8125-5.25-5.8125-15.938 0-21.375zm-1.6875 120c-0.375-6.1875 3.375-11.812 3.1875-17.812 2.0625-0.75 3.9375-2.0625 5.625-3.5625 0 0 1.5-1.3125 1.5-1.5 6.1875-5.8125 16.5-7.5 18.562-16.688 7.875 8.625 18.75 14.25 28.5 20.25 2.8125 11.062 4.6875 23.25 10.5 33.375-8.4375-0.1875-13.312 5.8125-19.125 11.062-3.375 2.0625-7.3125 3.5625-9.5625 6.75-15.938-1.3125-32.812-8.25-48.562-2.625 5.8125-8.0625 9.1875-18.188 9.375-29.062zm-86.062-42.938c-52.688 9-34.312-68.625 7.6875-40.312 9.75 11.25 14.438 27.188 24.75 36.938-10.5-0.375-21.375 0.9375-32.438 3.5625zm18.938 96c10.125-9.1875 21.938-1.125 33.188-6.1875-3.75 5.4375-6.375 11.812-7.6875 19.125-5.8125 24.75-41.812 7.5-25.5-13.125z" fill="#c2dc63"/>
</svg>
