<?xml version="1.0" encoding="UTF-8"?>
<svg width="1200pt" height="1200pt" version="1.1" viewBox="0 0 1200 1200" xmlns="http://www.w3.org/2000/svg">
 <path d="m847.56 267.54c-3.0547 0.37891-5.9805 1.7188-8.2656 3.7773l-68.016 60.457c-3.1484 2.8555-5 7.0859-4.9609 11.336v69.195l-244.9 244.9h0.003906c-2.9492 2.7969-4.6484 6.6641-4.7148 10.727-0.0625 4.0625 1.5117 7.9805 4.3672 10.871 2.8594 2.8867 6.7578 4.5039 10.824 4.4844 4.0625-0.019531 7.9453-1.6758 10.777-4.5898l244.9-244.9h69.43c4.2852-0.023437 8.5234-1.9609 11.336-5.1953l60.457-68.016c3.7695-4.3398 4.7344-10.824 2.3633-16.059-2.3711-5.2383-7.9492-8.9453-13.699-8.9727h-52.898v-52.898c0.074219-8.5859-8.4844-16.188-17.004-15.113zm-315.51 136.03c-146.08 0-264.5 118.42-264.5 264.5s118.42 264.5 264.5 264.5 264.5-118.42 264.5-264.5c0-62.203-21.688-119.2-57.625-164.37l-59.277 59.277c21.211 29.688 33.77 65.914 33.77 105.09 0 99.988-81.383 181.37-181.37 181.37s-181.37-81.383-181.37-181.37c0-99.992 81.383-181.37 181.37-181.37 39.059 0 75.219 12.441 104.86 33.535l59.277-59.277c-45.125-35.809-102.05-57.387-164.13-57.387zm0 113.36c-83.652 0-151.14 67.488-151.14 151.14 0 83.652 67.492 151.14 151.14 151.14 83.652 0 151.14-67.492 151.14-151.14 0-30.949-9.1562-59.676-25.031-83.602l-61.875 61.875c2.3047 6.8281 3.7773 14.121 3.7773 21.727 0 37.562-30.449 68.016-68.016 68.016-37.562 0-68.016-30.453-68.016-68.016s30.453-68.016 68.016-68.016c7.4961 0 14.746 1.3008 21.492 3.543l61.637-61.637c-23.859-15.742-52.324-25.031-83.129-25.031z" fill="#c362dd"/>
</svg>
