<?xml version="1.0" encoding="UTF-8"?>
<svg width="1200pt" height="1200pt" version="1.1" viewBox="0 0 1200 1200" xmlns="http://www.w3.org/2000/svg">
 <path d="m620.89 816.82c87.965-86.555 78.625-244.38-18.422-320.45-67.359-55.324-101.52-119.27-101.52-190.06 0-90.902-57.961-163.56-144.22-180.81-80.219-16.066-183.15 20.883-232.54 139.48-85.59 205.46-86.566 309.45-86.531 312.65-0.13672 2.1875-10.555 219.11 198.08 308.78 129.23 57.395 287.09 32.641 385.16-69.59zm-370.36 35.129c-184.01-79.086-175.88-264.28-175.41-273.16 0.007812-0.99609 1.4844-102.04 83.688-299.41 45.18-101.39 116.26-128.54 190.57-117.12 52.625 10.523 114.08 54.559 114.08 144.04 0 81.391 39.844 157.14 115.23 219.06 0.007813 0 0.007813 0 0.007813 0.007813 80.246 62.844 88.082 193.73 15.359 265.27-87.965 90.371-224.01 113.22-343.51 61.316z" fill="#ffb258"/>
 <path d="m380 543.12c-57.285 0-103.89 46.602-103.89 103.88 4.8789 137.48 202.9 137.45 207.76 0 0-57.273-46.598-103.88-103.88-103.88zm0 170.25c-87.73-2.7891-87.711-129.98 0-132.75 87.719 2.7812 87.699 129.98 0 132.75z" fill="#ffb258"/>
 <path d="m824.96 965.56h-217.25l-50.766-50.758c-17.336-17.246-43.824 9.0898-26.512 26.516l56.258 56.25c3.5156 3.5156 8.2852 5.4922 13.258 5.4922h225.01c24.535-0.39453 24.73-37.066 0-37.5z" fill="#ffb258"/>
 <path d="m1143.7 871.81h-243.76c-10.355 0-18.75 8.3945-18.75 18.75v168.75c0 10.355 8.3945 18.75 18.75 18.75h243.76c10.355 0 18.75-8.3945 18.75-18.75v-168.75c0-10.355-8.3945-18.75-18.75-18.75zm-18.75 168.75h-206.26v-131.25h206.26z" fill="#ffb258"/>
 <path d="m562.47 328.06c3.9102 0 7.8555-1.2188 11.234-3.7539l70-52.496h218.76c24.535-0.37891 24.73-37.078 0-37.5h-225.01c-4.0547 0-8 1.3203-11.25 3.7539l-75 56.25c-14.449 10.055-6.0586 34.418 11.266 33.746z" fill="#ffb258"/>
 <path d="m1143.7 159.31h-206.26c-10.355 0-18.75 8.3945-18.75 18.75v150c0 10.355 8.3945 18.75 18.75 18.75h206.26c10.355 0 18.75-8.3945 18.75-18.75v-150c0-10.355-8.3945-18.75-18.75-18.75zm-18.75 150h-168.76v-112.5h168.76z" fill="#ffb258"/>
 <path d="m862.46 590.56h-131.26c-24.605 0.40625-24.676 37.078 0 37.5h131.26c24.609-0.40625 24.676-37.078 0.003907-37.5z" fill="#ffb258"/>
 <path d="m1143.7 496.81h-206.26c-10.355 0-18.75 8.3945-18.75 18.75v168.75c0 10.355 8.3945 18.75 18.75 18.75h206.26c10.355 0 18.75-8.3945 18.75-18.75v-168.75c0-10.355-8.3945-18.75-18.75-18.75zm-18.75 168.75h-168.76v-131.25h168.76z" fill="#ffb258"/>
</svg>
