<?xml version="1.0" encoding="UTF-8"?>
<svg width="1200pt" height="1200pt" version="1.1" viewBox="0 0 1200 1200" xmlns="http://www.w3.org/2000/svg">
 <path d="m886.68 672c0.86719-7.4453-0.56641-14.977-4.1055-21.582-3.5391-6.6094-9.0156-11.973-15.695-15.379-25.559-14.52-80.281 7.8008-154.92 41.039-18.48 8.1602-36 15.961-42.961 17.879-24 6-116.64-10.68-127.2-14.641l0.003906 0.003906c-22.395-8.7773-43.961-19.543-64.441-32.16 19.418-5.4141 37.996-13.492 55.199-24 19.281 11.281 39.52 22.238 60.719 32.879h0.003906c4.1992 2.2422 9.2383 2.2422 13.438 0 212.52-107.04 335.16-246 336.6-381.36 1.2344-33.965-6.9141-67.617-23.551-97.254-16.641-29.637-41.125-54.117-70.77-70.746-20.16-11.785-42.559-19.238-65.762-21.883s-46.703-0.42188-69 6.5234c-57 18.602-96 66.48-114.24 96-18.84-28.922-57.238-76.801-114.24-95.398-22.289-6.9648-45.785-9.207-68.988-6.5859-23.203 2.625-45.605 10.059-65.773 21.824-29.645 16.629-54.129 41.109-70.77 70.746-16.637 29.637-24.785 63.289-23.551 97.254 0.96094 86.039 50.762 173.4 141.36 252.84-5.3984 0-10.801 0.71875-16.199 0.71875-64.32 0-93.961 29.641-120 55.801-11.781 13.305-25.641 24.613-41.039 33.48-46.68 23.281-70.559 24-70.559 24h-0.003907c-0.99609-0.125-2.0039-0.125-3 0h-87.238c-3.9766 0-7.793 1.582-10.605 4.3945s-4.3945 6.6289-4.3945 10.605v205.92c0 3.9766 1.582 7.793 4.3945 10.605s6.6289 4.3945 10.605 4.3945h91.441c2.8789 0 280.8-23.16 333.96-25.559 101.16-4.9219 171.72-13.801 209.88-26.641 73.438-24.484 186.12-99.844 191.4-153.72zm-600-397.08c-1.7852-41.59 13.281-82.137 41.785-112.47 28.504-30.332 68.039-47.887 109.66-48.688 12.953-0.003907 25.828 2.0234 38.16 6 70.199 22.801 109.8 102.48 110.28 103.32l-0.003906-0.003906c1.6641 3.3594 4.5234 5.9688 8.0156 7.3242 3.4883 1.3555 7.3633 1.3555 10.852 0 3.4922-1.3555 6.3516-3.9648 8.0156-7.3242 0-0.83984 40.078-80.52 110.28-103.32l-0.003906 0.003907c37.355-11.137 77.668-6.0898 111.12 13.918 24.812 14.074 45.262 34.711 59.109 59.648 13.844 24.941 20.547 53.211 19.371 81.711 0 57.961-32.52 207.72-313.32 351.36-14.52-7.3203-28.199-14.762-41.398-22.199 14.332-13.23 25.316-29.684 32.039-48 8.6406-24.84 6.8398-50.879-4.3203-63.238-13.441-15-36.84-6.7188-75.48 6.9609-24.234 9.0273-49.004 16.559-74.16 22.559-131.04-106.92-149.52-203.52-150-247.44zm399.12 522.24c-36 12-103.44 20.398-201.72 25.078-53.039 2.3984-316.2 24-334.44 25.68l-74.641 0.003906v-175.92h75.238c1.2734 0.18359 2.5664 0.18359 3.8398 0 28.141-4.1172 55.301-13.305 80.16-27.121 18.254-10.113 34.715-23.168 48.723-38.641 24-24 47.039-47.039 98.879-47.039s102-18 138.96-31.078c14.266-5.7109 29-10.168 44.039-13.32 2.4141 12.152 0.90234 24.762-4.3203 36-9.1211 21.602-36.961 60-121.92 74.398h0.003906c-3.7305 0.6875-7.0664 2.75-9.3477 5.7812-2.2812 3.0352-3.3359 6.8125-2.9609 10.586 0.375 3.7734 2.1562 7.2695 4.9883 9.793 30.039 23.898 63.594 43.008 99.48 56.641 12 4.5586 112.44 24 145.8 15.602h-0.003906c16.391-5.4727 32.422-11.965 48-19.441 30.719-13.68 112.44-50.039 127.8-42.359 4.9219 2.8789 5.1602 5.1602 4.9219 7.9219-3.3594 33-97.68 103.56-171.12 128.04z" fill="#00bac2"/>
 <path d="m1140 938.04h-64.801c-17.359-2.4766-34.094-8.2188-49.32-16.918-10.664-6.1406-20.266-13.961-28.438-23.16-18.48-18.48-41.52-41.52-89.641-41.52-31.555-1.9297-62.574-9.0664-91.801-21.121-28.559-10.078-48-16.801-58.922-3.9609-9.2383 10.199-10.801 30.238-3.9609 49.922 6.8398 19.68 24 48 75.48 65.641h0.003906c-12.105 6.9453-24.699 13.004-37.68 18.117-9.7188 3.3594-74.16 14.398-89.281 10.441-4.8008-1.3203-17.879-7.0781-30.48-12.719-54.961-24-95.398-40.801-115.56-29.281-5.3633 2.9531-9.7188 7.4492-12.5 12.906-2.7812 5.4531-3.8633 11.617-3.1016 17.691 3.9609 40.441 87 96 140.88 114.36 27.961 9.3594 79.32 15.84 152.64 19.32 37.68 1.8008 238.08 18.242 240.12 18.242h66.359c3.9766 0 7.793-1.582 10.605-4.3945s4.3945-6.6289 4.3945-10.605v-147.96c0-3.9766-1.582-7.793-4.3945-10.605s-6.6289-4.3945-10.605-4.3945zm-15 148.32h-49.441c-14.641-1.1992-203.16-16.801-241.32-18.602-87.84-4.1992-126.96-12-144-17.762-62.16-20.762-123.48-75.84-120-89.398l0.83984-0.83984c12-3.7188 66.121 20.16 89.039 30.48h0.003906c11.375 5.4766 23.078 10.246 35.039 14.281 24.84 6.3594 99.359-8.1602 108-12 26.273-9.8438 50.852-23.73 72.84-41.16 2.8945-2.4922 4.7305-5.9961 5.1289-9.7969 0.39844-3.8008-0.66797-7.6094-2.9805-10.648-2.3125-3.043-5.6992-5.0859-9.4688-5.7148-41.879-7.0781-72-24-83.281-48-3.6758-7.0234-5.4922-14.875-5.2773-22.801 6.6016 1.4414 17.762 5.3984 27.238 8.7617 32.387 13.137 66.738 20.762 101.64 22.559 36 0 50.879 15.238 68.398 32.762 10.32 11.527 22.488 21.262 36 28.801 18.27 10.043 38.18 16.746 58.801 19.797 1.1953 0.18359 2.4062 0.18359 3.6016 0h50.16z" fill="#00bac2"/>
</svg>
