<?xml version="1.0" encoding="UTF-8"?>
<svg width="1200pt" height="1200pt" version="1.1" viewBox="0 0 1200 1200" xmlns="http://www.w3.org/2000/svg">
 <path d="m121.87 836.44c3.6094 7.2188 0.60938 15.984-6.6094 19.594-2.1094 1.0312-4.3125 1.5469-6.4688 1.5469-5.3906 0-10.547-2.9531-13.078-8.1094-38.625-77.953-58.219-161.9-58.219-249.47 0-158.76 65.625-307.22 181.36-413.68l-36.891 7.2188c-7.9219 1.5469-15.609-3.6094-17.156-11.531-1.5469-7.9219 3.6094-15.609 11.531-17.156l82.969-16.172c4.7812-0.9375 9.7031 0.5625 13.125 4.0312 3.4219 3.4219 4.9219 8.3438 4.0312 13.125l-16.172 82.969c-1.3594 6.9844-7.4531 11.812-14.344 11.812-0.9375 0-1.875-0.09375-2.8125-0.28125-7.9219-1.5469-13.078-9.2344-11.531-17.156l6.8906-35.25c-109.64 100.92-171.79 241.6-171.79 392.06 0 83.016 18.562 162.61 55.172 236.44zm241.64-714.56c73.875-36.609 153.47-55.172 236.48-55.172 150.47 0 291.14 62.156 392.06 171.79l-35.25-6.8906c-7.9219-1.5469-15.609 3.6094-17.156 11.531s3.6094 15.609 11.531 17.156l82.969 16.172c0.9375 0.1875 1.875 0.28125 2.8125 0.28125 3.8438 0 7.5469-1.5 10.312-4.2656 3.4219-3.4219 4.9219-8.3438 4.0312-13.125l-16.172-82.969c-1.5469-7.9219-9.2344-13.078-17.156-11.531s-13.078 9.2344-11.531 17.156l7.2188 36.891c-106.45-115.78-254.9-181.4-413.68-181.4-87.609 0-171.52 19.594-249.42 58.172-7.2188 3.5625-10.172 12.328-6.6094 19.594 3.5625 7.2188 12.328 10.219 19.547 6.6094zm654.52 884.58-36.891 7.2188c115.73-106.45 181.36-254.9 181.36-413.68 0-87.609-19.594-171.52-58.172-249.42-3.5625-7.2188-12.328-10.172-19.594-6.6094-7.2188 3.5625-10.172 12.328-6.6094 19.594 36.609 73.828 55.172 153.42 55.172 236.48 0 150.47-62.156 291.14-171.79 392.06l6.8906-35.25c1.5469-7.9219-3.6094-15.609-11.531-17.156s-15.609 3.6094-17.156 11.531l-14.812 76.031v0.046875l-1.3594 6.9375c-0.9375 4.7812 0.5625 9.7031 4.0312 13.125 2.7656 2.7656 6.4688 4.2656 10.312 4.2656 0.9375 0 1.875-0.09375 2.8125-0.28125l82.969-16.172c7.9219-1.5469 13.078-9.2344 11.531-17.156-1.5938-7.9219-9.2812-13.125-17.156-11.578zm-99.188-100.97c-46.359 0-84.047-37.734-84.047-84.047 0-17.906 5.6719-34.5 15.234-48.188l-27.562-27.562c-4.9219 31.969-16.453 63.422-35.016 92.344-45.609 71.062-122.86 109.88-201.61 109.88-32.203 0-64.688-6.5156-95.344-19.969l-12.234 19.078c12.984 13.078 15.703 33.891 5.3438 50.016l-66.703 103.92c58.547 21.422 120.1 32.297 183.14 32.297 83.016 0 162.61-18.562 236.48-55.172 7.2188-3.5625 15.984-0.60938 19.594 6.6094s0.60938 15.984-6.6094 19.594c-78 38.625-161.9 58.219-249.52 58.219-68.719 0-135.71-12.234-199.31-36.328l-11.484 17.906c-5.7656 9-14.766 15.234-25.266 17.531-2.9062 0.5625-5.8125 0.89062-8.6719 0.89062-7.5938 0-15.047-2.1562-21.562-6.375l-48.984-31.453c-18.656-11.953-24.094-36.844-12.094-55.5l5.2031-8.1094c-33.328-23.344-63.938-50.062-91.453-79.922l7.1719 36.844c1.5469 7.9219-3.6094 15.609-11.531 17.156-0.9375 0.1875-1.875 0.28125-2.8125 0.28125-6.8438 0-12.984-4.8281-14.344-11.812l-16.172-82.969c-0.9375-4.7812 0.5625-9.7031 4.0312-13.125 3.4219-3.4219 8.3438-4.9688 13.125-4.0312l6.8906 1.3594h0.046875l76.031 14.812c7.9219 1.5469 13.078 9.2344 11.531 17.156s-9.2344 13.078-17.156 11.531l-35.25-6.8906c25.781 27.984 54.469 53.109 85.641 75l73.359-114.28c10.359-16.125 30.375-22.359 47.672-15.984l12.234-19.031c-86.109-76.828-106.17-207.32-41.859-307.45 11.719-18.281 25.594-34.406 41.016-48.328-0.75-4.6875-1.3125-9.4219-1.6875-14.156h-140.21c-6.9375 39.422-41.391 69.469-82.781 69.469-46.359 0-84.047-37.734-84.047-84.047 0-46.359 37.734-84.047 84.047-84.047 41.391 0 75.844 30.047 82.781 69.469h140.16c4.4531-53.906 33.188-100.97 75.234-130.22l-38.484-66.703c-8.9531 3.2812-18.656 5.0625-28.734 5.0625-46.359 0-84.047-37.734-84.047-84.047 0-46.359 37.734-84.047 84.047-84.047 46.359 0 84.047 37.734 84.047 84.047 0 25.781-11.672 48.891-30.047 64.359l38.484 66.703c22.828-10.828 48.328-16.875 75.234-16.875 43.406 0 83.109 15.797 113.91 41.859l15.656-15.656c-9.6094-13.641-15.234-30.281-15.234-48.188 0-46.359 37.734-84.047 84.047-84.047 46.359 0 84.047 37.734 84.047 84.047 0 46.359-37.734 84.047-84.047 84.047-17.906 0-34.5-5.6719-48.188-15.234l-15.656 15.656c23.109 27.281 38.109 61.594 41.203 99.281h91.453c6.9375-39.422 41.391-69.469 82.781-69.469 46.359 0 84.047 37.734 84.047 84.047 0 46.359-37.734 84.047-84.047 84.047-41.344 0-75.844-30.047-82.781-69.469h-91.406c-1.0312 12.609-3.4219 25.031-7.125 37.078 36.469 43.078 56.062 97.547 56.578 152.86l45.469 45.469c13.641-9.6094 30.281-15.234 48.188-15.234 46.359 0 84.047 37.734 84.047 84.047-0.046875 46.312-37.734 84-84.094 84zm-23.719-402.89c0 30.234 24.609 54.844 54.844 54.844s54.844-24.609 54.844-54.844-24.609-54.844-54.844-54.844-54.844 24.609-54.844 54.844zm-462.84-235.69c30.234 0 54.844-24.609 54.844-54.844s-24.609-54.844-54.844-54.844-54.844 24.609-54.844 54.844 24.609 54.844 54.844 54.844zm-176.11 235.69c0-30.234-24.609-54.844-54.844-54.844s-54.844 24.609-54.844 54.844 24.609 54.844 54.844 54.844c30.281 0 54.844-24.609 54.844-54.844zm487.31-198.32c0 30.234 24.609 54.844 54.844 54.844s54.844-24.609 54.844-54.844c0-30.234-24.609-54.844-54.844-54.844s-54.844 24.562-54.844 54.844zm-290.44 206.02c76.734-51.281 179.81-55.594 262.31-2.6719 10.453 6.7031 20.25 14.109 29.297 22.125 1.6406-8.9062 2.5312-17.953 2.5312-27.141 0-81.141-66-147.14-147.14-147.14-81.141 0-147.14 66-147.14 147.14-0.046875 2.5781 0 5.1094 0.14062 7.6875zm2.625 455.81-48.984-31.453c-1.8281-1.1719-3.8906-1.7344-5.9062-1.7344-3.6094 0-7.125 1.7812-9.2344 5.0156l-94.359 147c-1.5469 2.4375-2.0625 5.3438-1.4531 8.25 0.60938 2.8594 2.2969 5.3438 4.7344 6.8906l48.984 31.453c2.4375 1.5469 5.3438 2.0625 8.25 1.4531 2.8594-0.60938 5.3438-2.2969 6.8906-4.7344l18.094-28.172 76.266-118.83c3.2812-5.0625 1.7812-11.859-3.2812-15.141zm8.6719-51.516c-2.4375-1.4531-4.875-2.9531-7.3125-4.5-2.3906-1.5469-4.7812-3.1406-7.125-4.7812l-10.172 15.844 14.391 9.2344zm235.22-382.36c-34.219-21.984-73.219-33.328-112.97-33.328-15 0-30.141 1.5938-45.141 4.9219-54.797 11.953-101.62 44.531-131.9 91.688-62.531 97.406-34.125 227.48 63.281 290.02s227.48 34.125 290.02-63.281c62.484-97.406 34.125-227.48-63.281-290.02zm274.13 289.22c0-30.234-24.609-54.844-54.844-54.844s-54.844 24.609-54.844 54.844 24.609 54.844 54.844 54.844 54.844-24.609 54.844-54.844z" fill="#12b0fb"/>
</svg>
