<?xml version="1.0" encoding="UTF-8"?>
<svg width="1200pt" height="1200pt" version="1.1" viewBox="0 0 1200 1200" xmlns="http://www.w3.org/2000/svg">
 <path d="m761.44 254.53c7.2188-3.6094 15.797-3.3281 22.781 0.75l144.94 84.609 114.75-66.984c11.438-6.6562 26.156-2.8125 32.812 8.625 6.7031 11.438 2.8125 26.156-8.625 32.812l-126.79 74.062c-7.5 4.4062-16.734 4.4062-24.234 0l-144.94-84.609-133.03 77.672v155.86l145.13 84.797 2.0625 1.3594c9.8438 7.1719 12.844 20.766 6.5625 31.5s-19.594 14.766-30.656 9.75l-2.1562-1.125-144.94-84.703-133.03 77.672v175.74c0 8.5312-4.5469 16.406-11.906 20.719l-157.03 91.688c-7.4531 4.4062-16.734 4.4062-24.188 0l-157.03-91.688c-7.3594-4.3125-11.906-12.188-11.906-20.719v-189.52l0.046876-1.5938c0.51562-7.9219 4.9219-15.094 11.859-19.125l145.13-84.75v-155.86l-145.13-84.75-2.0625-1.3125c-9.8438-7.1719-12.844-20.766-6.5625-31.5 6.2344-10.734 19.594-14.812 30.656-9.75l2.1562 1.125 144.94 84.609 144.94-84.609 1.4062-0.75c7.2188-3.6094 15.797-3.3281 22.781 0.75l144.94 84.609 144.94-84.609zm-593.44 402.05v161.95l133.03 77.672 133.03-77.672v-161.95l-133.03-77.672zm157.36 84.047c0-14.062-11.156-24.938-24.328-24.938s-24.328 10.875-24.328 24.938c0 14.016 11.156 24.891 24.328 24.891s24.328-10.875 24.328-24.891zm-0.32812-359.16v155.86l133.03 77.672 133.03-77.672v-155.86l-133.03-77.672zm157.36 77.953c0-14.062-11.156-24.938-24.328-24.938-13.172 0-24.328 10.875-24.328 24.938 0 14.016 11.156 24.891 24.328 24.891 13.172 0 24.328-10.875 24.328-24.891zm217.45 0c0-39.984 32.062-72.938 72.281-72.938 13.266 0 24 10.781 24 24 0 13.266-10.734 24-24 24-13.125 0-24.281 10.875-24.281 24.938 0 13.125 9.7969 23.484 21.844 24.75l4.9219 0.28125c12.094 1.2188 21.516 11.438 21.516 23.859 0 13.266-10.734 24-24 24-40.219 0-72.281-32.906-72.281-72.891zm-326.48 281.21c0 39.984-32.109 72.891-72.328 72.891s-72.328-32.906-72.328-72.891 32.109-72.938 72.328-72.938 72.328 32.953 72.328 72.938zm157.03-281.21c0 39.984-32.109 72.891-72.328 72.891s-72.328-32.906-72.328-72.891 32.109-72.938 72.328-72.938 72.328 32.953 72.328 72.938z"/>
</svg>
