<?xml version="1.0" encoding="UTF-8"?>
<svg width="1200pt" height="1200pt" version="1.1" viewBox="0 0 1200 1200" xmlns="http://www.w3.org/2000/svg">
 <path d="m1153.4 1010-58.387-35.043c-26.445-15.898-57.656-21.945-88.125-17.082l-2.0078 0.32031c-1.2188-3.3359-2.2305-6.7305-3.75-9.9375l-5.3633-11.25h0.003906c-3.375-7.1133-8.9023-12.98-15.797-16.777-6.8945-3.7969-14.809-5.3242-22.625-4.375l-16.613 2.0234 0.003906 0.003906c-12 1.418-22.578 8.5273-28.422 19.098-5.8438 10.574-6.2344 23.312-1.0547 34.227 7.4922 15.859 9.6758 33.711 6.2266 50.906-2.2539 11.039 0.57422 22.504 7.7031 31.227 7.125 8.7227 17.797 13.781 29.062 13.773 1.5117-0.003906 3.0195-0.089844 4.5195-0.26172l16.555-2.043h0.003906c7.8438-0.9375 15.195-4.3281 21-9.6875 5.8047-5.3594 9.7656-12.418 11.324-20.164l2.4922-12.262c1.7109-9.1211 2.3398-18.41 1.875-27.676l0.71094-0.13281h0.003906c21.754-3.4336 44.027 0.88672 62.922 12.207l58.461 35.062h0.003906c4.2656 2.7773 9.4805 3.7031 14.445 2.5586 4.9609-1.1445 9.2422-4.2617 11.863-8.6289 2.6172-4.3672 3.3477-9.6094 2.0234-14.527-1.3281-4.918-4.5977-9.082-9.0586-11.539zm-180 5.2109-2.5117 12.262-16.574 2.0234v0.003907c5.0391-25.152 1.8516-51.258-9.0938-74.457l16.594-2.0078 5.3633 11.25v0.003906c7.4844 15.867 9.668 33.723 6.2227 50.926z"/>
 <path d="m438.64 428.83c16.508 5.5391 34.543 4.2578 50.102-3.5625 42.223-21.164 74.32-58.215 89.254-103.02 14.934-44.809 11.48-93.707-9.6055-135.97-10.484-20.969-31.363-34.754-54.77-36.156-23.402-1.4023-45.777 9.7852-58.695 29.352-12.918 19.57-14.414 44.539-3.9297 65.512 5.5625 11.117 6.4766 23.992 2.543 35.785-3.9297 11.793-12.387 21.543-23.504 27.102-15.566 7.7852-27.406 21.434-32.91 37.949-5.5 16.512-4.2188 34.535 3.5664 50.102 7.7852 15.566 21.438 27.402 37.949 32.906zm8.1758-87.414c10.969-5.5586 20.57-13.473 28.125-23.176h34.727c6.6953 0 12.887-3.5703 16.238-9.375 3.3477-5.8008 3.3477-12.945 0-18.75-3.3516-5.8008-9.543-9.375-16.238-9.375h-17.852c3.3438-17.824 0.79297-36.254-7.2734-52.5-4.3789-8.7188-3.9258-19.086 1.1992-27.387 5.125-8.3047 14.188-13.359 23.941-13.355 5.2266 0.011719 10.344 1.4727 14.785 4.2188 4.4414 2.75 8.0352 6.6758 10.379 11.344 2.7695 5.625 5.1562 11.434 7.1445 17.383l-23.906 11.961c-4.4883 2.1992-7.9141 6.0977-9.5117 10.836-1.6016 4.7344-1.2461 9.9102 0.98828 14.383s6.1602 7.8633 10.91 9.4297c4.7461 1.5625 9.9219 1.1641 14.375-1.1055l14.531-7.1992c1.8359 35.379-9.75 70.145-32.438 97.352l-7.293-14.586v-0.003906c-1.8594-4.9727-5.7422-8.9258-10.684-10.875-4.9414-1.9492-10.477-1.7109-15.23 0.65234-4.7578 2.3672-8.2852 6.6367-9.7109 11.754-1.4258 5.1172-0.61719 10.598 2.2305 15.082l11.961 23.887c-5.1641 3.5742-10.562 6.793-16.16 9.6367-6.6914 3.5039-14.508 4.1719-21.695 1.8516-7.1836-2.3242-13.137-7.4375-16.512-14.191s-3.8945-14.582-1.4375-21.723c2.457-7.1406 7.6836-12.996 14.5-16.242z"/>
 <path d="m752.32 373.86c-16.945 3.9688-31.625 14.508-40.801 29.297-9.1797 14.789-12.105 32.617-8.1367 49.566 9.2148 39.055 31.32 73.871 62.746 98.824 31.422 24.957 70.34 38.598 110.47 38.727 13.746-0.011719 27.449-1.6016 40.836-4.7461 22.828-5.3555 41.066-22.488 47.84-44.938 6.7734-22.453 1.0547-46.809-15-63.902-16.055-17.09-40.012-24.316-62.84-18.957-12.094 2.8086-24.809 0.70703-35.352-5.8438-10.547-6.5508-18.062-17.02-20.898-29.109-3.9922-16.93-14.539-31.586-29.32-40.758-14.785-9.168-32.598-12.102-49.543-8.1602zm25.895 38.082-9.375 5.3242c-5.8203 3.332-9.4219 9.5195-9.4453 16.227-0.027344 6.707 3.5312 12.918 9.3281 16.293 5.7969 3.375 12.953 3.4023 18.773 0.070312l11.25-6.4492v-0.003906c6.5312 16.582 18.191 30.645 33.281 40.125l-10.445 11.625c-3.4102 3.6875-5.2031 8.5859-4.9727 13.605 0.23047 5.0195 2.4648 9.7344 6.2031 13.09 3.7383 3.3555 8.668 5.0703 13.68 4.7617 5.0156-0.30859 9.6953-2.6172 12.992-6.4062l21.824-24.281c8.2812 0.66406 16.617 0.09375 24.73-1.6875 9.7891-2.2891 20.055 0.8125 26.93 8.1445 6.8789 7.3281 9.3242 17.773 6.4141 27.395-2.9102 9.6211-10.73 16.957-20.52 19.25-2.418 0.5625-4.8555 0.88281-7.2734 1.3125l1.293-4.6875c1.7773-6.4609-0.023438-13.379-4.7305-18.152-4.707-4.7695-11.598-6.668-18.086-4.9766-6.4844 1.6914-11.574 6.7109-13.352 13.172l-4.4258 16.145c-30.508-3.1914-59.148-16.238-81.582-37.164l9.8633-5.625c4.4141-2.4102 7.6758-6.4922 9.0508-11.332 1.375-4.8359 0.75-10.027-1.7383-14.398s-6.6289-7.5586-11.492-8.8477c-4.8594-1.2891-10.035-0.57422-14.363 1.9922l-15.301 8.6992c-7.7617-12.688-13.457-26.531-16.875-41.008-1.6172-6.7695-0.65234-13.902 2.7031-20.004 3.3594-6.0977 8.8672-10.73 15.449-12.992 6.5859-2.2617 13.777-1.9883 20.172 0.76562z"/>
 <path d="m337.5 56.25v217.07c0.56641 28.48-8.2695 56.355-25.145 79.312-12.441 16.219-28.84 28.969-47.625 37.031-34.777 14.473-64.355 39.145-84.836 70.766-20.477 31.617-30.895 68.699-29.879 106.36 1.0117 37.656 13.414 74.121 35.566 104.59 22.152 30.469 53.016 53.512 88.523 66.094 9.5234 3.3594 19.371 5.7148 29.383 7.0312l34.801 5.1367c4.2852 0.65625 8.668-0.20312 12.391-2.4297 3.7188-2.2305 6.5469-5.6875 7.9883-9.7773 3.8477-10.965 12.594-19.508 23.648-23.094 11.055-3.5859 23.148-1.8047 32.699 4.8164 9.5547 6.6172 15.469 17.316 15.992 28.926 0.21875 4.3281 1.9336 8.4414 4.8438 11.648 2.9141 3.207 6.8438 5.3047 11.129 5.9414l76.145 11.25c0.90625 0.125 1.8203 0.1875 2.7383 0.1875 5.3359 0 10.418-2.2734 13.977-6.25 3.5586-3.9766 5.2539-9.2773 4.6602-14.582l-0.375-2.8672c-0.20312-1.1289-0.32812-2.2695-0.375-3.4141 0-20.098 10.723-38.664 28.125-48.715 17.402-10.047 38.848-10.047 56.25 0 17.402 10.051 28.125 28.617 28.125 48.715-0.039062 0.98828-0.14453 1.9727-0.32031 2.9453l-0.375 3.0195v-0.003906c-0.63672 5.7656 1.4258 11.504 5.5938 15.535 4.168 4.0352 9.9648 5.9141 15.707 5.0898l95.117-13.594h0.003906c4.1445-0.59375 7.9727-2.5586 10.871-5.5859 2.8984-3.0234 4.7031-6.9297 5.1211-11.102 1.0508-11.316 7.2188-21.531 16.742-27.73 9.5273-6.2031 21.363-7.707 32.137-4.0898 10.777 3.6172 19.305 11.961 23.16 22.652 1.5156 4.1055 4.4219 7.5508 8.2109 9.7422 3.793 2.1875 8.2305 2.9805 12.543 2.2383 13.941-2.2109 27.672-5.5938 41.043-10.105 34.902-12.02 65.559-33.914 88.246-63.031 22.688-29.117 36.43-64.195 39.555-100.97 2.5273-38.938-7.125-77.695-27.621-110.89-20.496-33.203-50.816-59.203-86.754-74.395-18.785-8.0625-35.184-20.812-47.625-37.031-16.871-22.973-25.695-50.871-25.105-79.367v-217.07c0-4.9727-1.9766-9.7422-5.4922-13.258-3.5156-3.5156-8.2852-5.4922-13.258-5.4922h-487.5c-4.9727 0-9.7422 1.9766-13.258 5.4922-3.5156 3.5156-5.4922 8.2852-5.4922 13.258zm37.5 18.75h450v198.32c-0.55859 36.801 11.039 72.762 33 102.3 16.379 21.285 37.941 38.02 62.625 48.602 28.754 12.168 53.008 32.984 69.395 59.559 16.387 26.578 24.094 57.598 22.051 88.754-2.5859 29.441-13.668 57.496-31.898 80.754-18.234 23.262-42.828 40.727-70.797 50.27-7.0469 2.418-14.234 4.4023-21.523 5.9453-10.27-16.102-26.32-27.656-44.852-32.281-18.527-4.625-38.125-1.9688-54.758 7.418-16.629 9.3906-29.027 24.797-34.641 43.051l-60.898 8.6797h-0.003906c-4.3281-30.043-22.93-56.129-49.926-70.008-26.992-13.879-59.035-13.832-85.984 0.12891-26.953 13.961-45.477 40.105-49.715 70.16l-41.25-6.0742c-5.0547-18.875-17.312-35.016-34.137-44.957-16.82-9.9414-36.871-12.891-55.844-8.2148-18.977 4.6758-35.359 16.602-45.637 33.223l-21.262-3.1328c-7.3945-0.94922-14.668-2.6523-21.715-5.0781-27.156-10.004-50.914-27.516-68.508-50.496s-28.297-50.484-30.867-79.312c-2.043-31.156 5.6641-62.18 22.055-88.758s40.648-47.391 69.41-59.555c24.711-10.57 46.297-27.305 62.699-48.598 21.969-29.562 33.562-65.551 32.98-102.38z"/>
 <path d="m468.75 675c29.836 0 58.453-11.852 79.551-32.949 21.098-21.098 32.949-49.715 32.949-79.551s-11.852-58.453-32.949-79.551c-21.098-21.098-49.715-32.949-79.551-32.949s-58.453 11.852-79.551 32.949c-21.098 21.098-32.949 49.715-32.949 79.551 0.03125 29.828 11.891 58.426 32.984 79.516 21.09 21.094 49.688 32.953 79.516 32.984zm0-187.5c19.891 0 38.969 7.9023 53.031 21.969 14.066 14.062 21.969 33.141 21.969 53.031s-7.9023 38.969-21.969 53.031c-14.062 14.066-33.141 21.969-53.031 21.969s-38.969-7.9023-53.031-21.969c-14.066-14.062-21.969-33.141-21.969-53.031s7.9023-38.969 21.969-53.031c14.062-14.066 33.141-21.969 53.031-21.969z"/>
 <path d="m562.5 431.25c0 14.918 5.9258 29.227 16.477 39.773 10.547 10.551 24.855 16.477 39.773 16.477s29.227-5.9258 39.773-16.477c10.551-10.547 16.477-24.855 16.477-39.773s-5.9258-29.227-16.477-39.773c-10.547-10.551-24.855-16.477-39.773-16.477s-29.227 5.9258-39.773 16.477c-10.551 10.547-16.477 24.855-16.477 39.773zm56.25-18.75c4.9727 0 9.7422 1.9766 13.258 5.4922 3.5156 3.5156 5.4922 8.2852 5.4922 13.258s-1.9766 9.7422-5.4922 13.258c-3.5156 3.5156-8.2852 5.4922-13.258 5.4922s-9.7422-1.9766-13.258-5.4922c-3.5156-3.5156-5.4922-8.2852-5.4922-13.258s1.9766-9.7422 5.4922-13.258c3.5156-3.5156 8.2852-5.4922 13.258-5.4922z"/>
 <path d="m693.75 543.75c-14.918 0-29.227 5.9258-39.773 16.477-10.551 10.547-16.477 24.855-16.477 39.773s5.9258 29.227 16.477 39.773c10.547 10.551 24.855 16.477 39.773 16.477s29.227-5.9258 39.773-16.477c10.551-10.547 16.477-24.855 16.477-39.773s-5.9258-29.227-16.477-39.773c-10.547-10.551-24.855-16.477-39.773-16.477zm0 75c-4.9727 0-9.7422-1.9766-13.258-5.4922-3.5156-3.5156-5.4922-8.2852-5.4922-13.258s1.9766-9.7422 5.4922-13.258c3.5156-3.5156 8.2852-5.4922 13.258-5.4922s9.7422 1.9766 13.258 5.4922c3.5156 3.5156 5.4922 8.2852 5.4922 13.258s-1.9766 9.7422-5.4922 13.258c-3.5156 3.5156-8.2852 5.4922-13.258 5.4922z"/>
 <path d="m468.75 562.5c4.9727 0 9.7422-1.9766 13.258-5.4922 3.5156-3.5156 5.4922-8.2852 5.4922-13.258v-18.75c0-6.6992-3.5742-12.887-9.375-16.238-5.8008-3.3477-12.949-3.3477-18.75 0-5.8008 3.3516-9.375 9.5391-9.375 16.238v18.75c0 4.9727 1.9766 9.7422 5.4922 13.258 3.5156 3.5156 8.2852 5.4922 13.258 5.4922z"/>
 <path d="m487.5 600c0 6.6992 3.5742 12.887 9.375 16.238 5.8008 3.3477 12.949 3.3477 18.75 0 5.8008-3.3516 9.375-9.5391 9.375-16.238v-18.75c0-6.6992-3.5742-12.887-9.375-16.238-5.8008-3.3477-12.949-3.3477-18.75 0-5.8008 3.3516-9.375 9.5391-9.375 16.238z"/>
 <path d="m431.25 600c4.9727 0 9.7422-1.9766 13.258-5.4922 3.5156-3.5156 5.4922-8.2852 5.4922-13.258v-18.75c0-6.6992-3.5742-12.887-9.375-16.238-5.8008-3.3477-12.949-3.3477-18.75 0-5.8008 3.3516-9.375 9.5391-9.375 16.238v18.75c0 4.9727 1.9766 9.7422 5.4922 13.258 3.5156 3.5156 8.2852 5.4922 13.258 5.4922z"/>
 <path d="m712.5 337.5c14.918 0 29.227-5.9258 39.773-16.477 10.551-10.547 16.477-24.855 16.477-39.773s-5.9258-29.227-16.477-39.773c-10.547-10.551-24.855-16.477-39.773-16.477s-29.227 5.9258-39.773 16.477c-10.551 10.547-16.477 24.855-16.477 39.773s5.9258 29.227 16.477 39.773c10.547 10.551 24.855 16.477 39.773 16.477zm0-75c4.9727 0 9.7422 1.9766 13.258 5.4922 3.5156 3.5156 5.4922 8.2852 5.4922 13.258s-1.9766 9.7422-5.4922 13.258c-3.5156 3.5156-8.2852 5.4922-13.258 5.4922s-9.7422-1.9766-13.258-5.4922c-3.5156-3.5156-5.4922-8.2852-5.4922-13.258s1.9766-9.7422 5.4922-13.258c3.5156-3.5156 8.2852-5.4922 13.258-5.4922z"/>
 <path d="m375 750v18.75c0 6.6992 3.5742 12.887 9.375 16.238 5.8008 3.3477 12.949 3.3477 18.75 0 5.8008-3.3516 9.375-9.5391 9.375-16.238v-18.75c0-6.6992-3.5742-12.887-9.375-16.238-5.8008-3.3477-12.949-3.3477-18.75 0-5.8008 3.3516-9.375 9.5391-9.375 16.238z"/>
 <path d="m581.25 806.25v-18.75c0-6.6992-3.5742-12.887-9.375-16.238-5.8008-3.3477-12.949-3.3477-18.75 0-5.8008 3.3516-9.375 9.5391-9.375 16.238v18.75c0 6.6992 3.5742 12.887 9.375 16.238 5.8008 3.3477 12.949 3.3477 18.75 0 5.8008-3.3516 9.375-9.5391 9.375-16.238z"/>
 <path d="m618.75 768.75c4.9727 0 9.7422-1.9766 13.258-5.4922 3.5156-3.5156 5.4922-8.2852 5.4922-13.258v-18.75c0-6.6992-3.5742-12.887-9.375-16.238-5.8008-3.3477-12.949-3.3477-18.75 0-5.8008 3.3516-9.375 9.5391-9.375 16.238v18.75c0 4.9727 1.9766 9.7422 5.4922 13.258 3.5156 3.5156 8.2852 5.4922 13.258 5.4922z"/>
 <path d="m806.25 768.75v18.75c0 6.6992 3.5742 12.887 9.375 16.238 5.8008 3.3477 12.949 3.3477 18.75 0 5.8008-3.3516 9.375-9.5391 9.375-16.238v-18.75c0-6.6992-3.5742-12.887-9.375-16.238-5.8008-3.3477-12.949-3.3477-18.75 0-5.8008 3.3516-9.375 9.5391-9.375 16.238z"/>
 <path d="m337.5 843.75v18.75c0 6.6992 3.5742 12.887 9.375 16.238 5.8008 3.3477 12.949 3.3477 18.75 0 5.8008-3.3516 9.375-9.5391 9.375-16.238v-18.75c0-6.6992-3.5742-12.887-9.375-16.238-5.8008-3.3477-12.949-3.3477-18.75 0-5.8008 3.3516-9.375 9.5391-9.375 16.238z"/>
 <path d="m637.5 825c-4.9727 0-9.7422 1.9766-13.258 5.4922-3.5156 3.5156-5.4922 8.2852-5.4922 13.258v18.75c0 6.6992 3.5742 12.887 9.375 16.238 5.8008 3.3477 12.949 3.3477 18.75 0 5.8008-3.3516 9.375-9.5391 9.375-16.238v-18.75c0-4.9727-1.9766-9.7422-5.4922-13.258-3.5156-3.5156-8.2852-5.4922-13.258-5.4922z"/>
 <path d="m525 881.25v18.75c0 6.6992 3.5742 12.887 9.375 16.238 5.8008 3.3477 12.949 3.3477 18.75 0 5.8008-3.3516 9.375-9.5391 9.375-16.238v-18.75c0-6.6992-3.5742-12.887-9.375-16.238-5.8008-3.3477-12.949-3.3477-18.75 0-5.8008 3.3516-9.375 9.5391-9.375 16.238z"/>
 <path d="m862.5 825v18.75c0 6.6992 3.5742 12.887 9.375 16.238 5.8008 3.3477 12.949 3.3477 18.75 0 5.8008-3.3516 9.375-9.5391 9.375-16.238v-18.75c0-6.6992-3.5742-12.887-9.375-16.238-5.8008-3.3477-12.949-3.3477-18.75 0-5.8008 3.3516-9.375 9.5391-9.375 16.238z"/>
 <path d="m585.66 971.83c-7.0547-9.7695-18.363-15.562-30.414-15.582h-16.727 0.003906c-7.8789-0.011719-15.559 2.4609-21.953 7.0586-6.3945 4.6016-11.18 11.102-13.672 18.574l-3.918 11.867c-0.69531 2.082-0.97656 4.2578-1.5547 6.3555-29.887-3.168-64.406-7.3516-103.12-12.508 0-3.4297 0-6.8633-0.32031-10.273l-1.4062-12.395c-0.86328-7.8281-4.1758-15.184-9.4648-21.02-5.2891-5.832-12.285-9.8477-19.992-11.473l-16.352-3.4883c-11.781-2.4805-24.035 0.84375-32.945 8.9375-8.9141 8.0938-13.395 19.973-12.055 31.938 1.9297 17.441-1.8164 35.035-10.688 50.176-6.1016 10.395-6.8359 23.086-1.9766 34.117 4.8633 11.027 14.73 19.047 26.52 21.551l16.352 3.4883c2.5703 0.54297 5.1914 0.82031 7.8203 0.82422 13.285-0.007813 25.574-7.0508 32.305-18.504l6.3359-10.781c4.6602-8.1797 8.3164-16.883 10.895-25.934 39 5.1953 73.855 9.375 104.1 12.637 0.44922 10.656 2.3398 21.203 5.625 31.352l3.957 11.867c2.4844 7.457 7.2539 13.941 13.625 18.539 6.3711 4.6016 14.027 7.082 21.887 7.0938h16.727-0.003906c12.066 0.015625 23.402-5.7734 30.465-15.555 7.0586-9.7852 8.9805-22.367 5.1602-33.812-5.5117-16.645-5.5117-34.621 0-51.266 3.7773-11.445 1.8359-24.008-5.2109-33.785zm-245.89 70.668-16.352-3.4883c12.965-22.137 18.445-47.867 15.621-73.367l16.352 3.5078 1.4062 12.395-0.003906-0.003906c1.9297 17.434-1.8125 35.02-10.668 50.156zm198.75 26.25-3.957-11.867c-5.5117-16.645-5.5117-34.621 0-51.266l3.957-11.867h16.707c-8.082 24.348-8.082 50.652 0 75z"/>
 <path d="m290.87 967.5c6.1055-10.391 6.8398-23.082 1.9844-34.109-4.8594-11.027-14.723-19.051-26.508-21.559l-16.367-3.4883c-7.7031-1.6523-15.727-0.82812-22.934 2.3477-7.2031 3.1797-13.223 8.5508-17.191 15.352l-6.3203 10.762c-3.8672 6.7422-7.0508 13.855-9.5078 21.227l-0.82422-0.13281c-30.496-4.8867-61.738 1.1719-88.199 17.102l-58.461 35.062c-4.4609 2.457-7.7305 6.6211-9.0586 11.539-1.3281 4.918-0.59766 10.16 2.0234 14.527 2.6172 4.3672 6.9023 7.4844 11.863 8.6289 4.9648 1.1445 10.176 0.21875 14.445-2.5586l58.461-35.062c19.023-11.273 41.387-15.547 63.227-12.074-0.16406 5.043-0.007812 10.09 0.46875 15.113l1.4062 12.414v-0.003906c0.88281 7.8203 4.1992 15.164 9.4883 20.992 5.2852 5.8281 12.273 9.8477 19.969 11.484l16.352 3.4883h-0.003906c11.781 2.4805 24.039-0.84375 32.949-8.9375s13.395-19.973 12.051-31.938c-1.9219-17.441 1.8281-35.035 10.688-50.176zm-47.887 54.375-16.352-3.5078-1.4062-12.395 0.003906 0.003906c-1.9297-17.441 1.8164-35.039 10.688-50.176l6.3359-10.781 16.352 3.4883c-12.988 22.129-18.469 47.867-15.621 73.367z"/>
 <path d="m900.28 972.52c2.3945-11.801-1.0273-24.039-9.1992-32.887-8.168-8.8516-20.094-13.238-32.051-11.793l-16.555 2.0234c-7.8281 0.9375-15.16 4.3203-20.957 9.6602-5.793 5.3398-9.7617 12.375-11.332 20.098l-2.4922 12.262c-0.97266 5.1836-1.6016 10.426-1.875 15.695-41.867 5.625-78.75 10.012-110.3 13.258-0.63672-2.3438-0.97656-4.7812-1.7422-7.0859l-3.957-11.867-0.003906-0.003907c-2.4922-7.4648-7.2656-13.957-13.648-18.555-6.3828-4.6016-14.051-7.0781-21.922-7.0781h-16.742c-12.066-0.015625-23.402 5.7734-30.461 15.555-7.0625 9.7852-8.9844 22.367-5.1641 33.812 5.4922 16.652 5.4922 34.629 0 51.281-3.8125 11.445-1.8867 24.023 5.1719 33.801 7.0586 9.7773 18.391 15.566 30.453 15.551h16.727c7.875 0.011719 15.559-2.4609 21.953-7.0586 6.3945-4.6016 11.176-11.102 13.672-18.574l3.8984-11.867c3.1719-9.9141 5.0195-20.203 5.4922-30.602 31.539-3.2422 68.383-7.668 110.06-13.219 1.793 7.3633 4.3047 14.527 7.5 21.395l5.3633 11.25c3.0352 6.3906 7.8125 11.789 13.785 15.578 5.9727 3.7891 12.895 5.8125 19.965 5.8359 1.5312-0.003906 3.0586-0.097656 4.5742-0.28125l16.594-2.0234v-0.003906c11.965-1.4609 22.496-8.5859 28.309-19.145 5.8086-10.562 6.1875-23.273 1.0195-34.16-7.4453-15.855-9.5938-33.68-6.1328-50.852zm-242.16 84.359-3.8828 11.867h-16.742c8.0625-24.352 8.0625-50.648 0-75h16.727l3.957 11.867h-0.003906c5.4766 16.652 5.457 34.625-0.054688 51.266zm197.81-15.336-5.3438-11.25v-0.003906c-7.4883-15.852-9.6719-33.695-6.2266-50.887l2.4922-12.242 16.594-2.0234 0.003906-0.003906c-5.0508 25.145-1.8477 51.246 9.1289 74.418z"/>
</svg>
