<?xml version="1.0" encoding="UTF-8"?>
<svg width="1200pt" height="1200pt" version="1.1" viewBox="0 0 1200 1200" xmlns="http://www.w3.org/2000/svg">
 <path d="m928.78 345.98-9.2344-73.734c-3.0938-24.609-24.094-43.172-48.891-43.172h-7.2188v-28.266c0-23.766-19.359-43.125-43.125-43.125h-440.63c-23.766 0-43.125 19.359-43.125 43.125v28.266h-7.2188c-24.797 0-45.797 18.562-48.891 43.172l-9.2344 73.734c-1.7812 14.016 2.5781 28.125 11.953 38.719 8.1094 9.1875 19.359 14.719 31.406 16.078v510.71c0 34.781 28.266 63.094 63.094 63.094h1.0312v14.484c0 29.344 23.906 53.25 53.25 53.25h336.1c29.344 0 53.25-23.906 53.25-53.25v-14.484h1.0312c34.781 0 63.094-28.312 63.094-63.094l-0.14062-510.71c12.047-1.4062 23.297-6.8906 31.406-16.078 9.375-10.594 13.734-24.703 11.953-38.719zm-551.72-145.22c0-1.5 1.2188-2.7188 2.7188-2.7188h440.58c1.5 0 2.7188 1.2188 2.7188 2.7188v28.266h-446.06v-28.266zm403.87 788.29c0 7.0781-5.7188 12.844-12.844 12.844h-336.14c-7.0781 0-12.844-5.7188-12.844-12.844v-14.484h361.74v14.484zm41.438-54.891h-444.71c-12.469 0-22.641-10.172-22.641-22.641v-510.19h489.94v510.14c0 12.469-10.172 22.641-22.641 22.641zm64.172-576.19c-0.98438 1.125-3.1406 3-6.6562 3h-559.74c-3.4688 0-5.625-1.875-6.6562-3s-2.5781-3.5156-2.1562-6.9844l9.2344-73.688c0.5625-4.4062 4.3594-7.7812 8.7656-7.7812h541.36c4.4531 0 8.2031 3.3281 8.7656 7.7812l9.2344 73.688c0.42188 3.4688-1.1719 5.8594-2.1562 6.9844z" fill="#4c25e0"/>
 <path d="m718.03 473.72-162.84 217.55s-58.781-8.1562-106.03 55.031c-29.953 40.031-16.172 99.281 33.188 120.32 35.344 15.094 75.281 0.23438 97.078-31.453 41.766-60.656 18.844-111.56 18.844-111.56l162.84-217.55c8.9062-11.906 6.4688-28.781-5.4375-37.734-11.906-8.9062-28.781-6.4688-37.734 5.4375z" fill="#4c25e0"/>
</svg>
