<?xml version="1.0" encoding="UTF-8"?>
<svg width="1200pt" height="1200pt" version="1.1" viewBox="0 0 1200 1200" xmlns="http://www.w3.org/2000/svg">
 <path d="m316.78 847.64c-15.188 0-27.562-12.328-27.562-27.562 0-15.188 12.328-27.562 27.562-27.562h418.26c15.234 0 27.562 12.328 27.562 27.562 0 15.188-12.328 27.562-27.562 27.562zm56.766 197.76v87.141h601.08v-922.82h-93.094v808.18c0 15.188-12.328 27.562-27.562 27.562h-480.37zm507.94-890.81h120.66c15.188 0 27.562 12.328 27.562 27.562v977.9c0 15.188-12.328 27.562-27.562 27.562h-656.16c-15.188 0-27.562-12.328-27.562-27.562v-114.66h-120.66c-15.188 0-27.562-12.328-27.562-27.562v-763.92c0-7.0781 2.7188-14.109 8.0625-19.453l213.74-213.74c5.0156-5.1562 12-8.2969 19.734-8.2969h442.18c15.188 0 27.562 12.328 27.562 27.562v114.66zm-617.21 71.766h119.95v-119.95zm175.03-158.9v186.47c0 15.188-12.328 27.562-27.562 27.562h-186.47v708.84h601.03v-922.82h-387.1zm95.578 254.34c-15.188 0-27.562-12.328-27.562-27.562s12.328-27.562 27.562-27.562h200.06c15.234 0 27.562 12.328 27.562 27.562 0 15.188-12.328 27.562-27.562 27.562zm-218.16 175.26c-15.188 0-27.562-12.328-27.562-27.562 0-15.188 12.328-27.562 27.562-27.562h418.26c15.234 0 27.562 12.328 27.562 27.562s-12.328 27.562-27.562 27.562zm0 175.26c-15.188 0-27.562-12.328-27.562-27.562 0-15.188 12.328-27.562 27.562-27.562h418.26c15.234 0 27.562 12.328 27.562 27.562 0 15.188-12.328 27.562-27.562 27.562z" fill="#00449e"/>
</svg>
