<?xml version="1.0" encoding="UTF-8"?>
<svg width="1200pt" height="1200pt" version="1.1" viewBox="0 0 1200 1200" xmlns="http://www.w3.org/2000/svg">
 <path d="m843.97 999.55c-3.2969 0-6.5938-1.3906-8.9141-4.125-4.1953-4.9102-3.6133-12.305 1.293-16.504 106.57-91.02 155.93-221.27 178.59-314.5 19.293-79.371 23.047-146.17 23.754-172.09h-916.67c0.73828 25.93 4.4883 92.727 23.75 172.09 22.656 93.234 72.047 223.49 178.59 314.5 4.9414 4.1992 5.4922 11.598 1.293 16.504-4.1992 4.9297-11.598 5.5195-16.504 1.3203-111.5-95.238-162.84-230.61-186.3-327.42-25.289-104.49-24.461-185.5-24.414-188.89 0.10156-6.4219 5.3008-11.547 11.719-11.547l940.44-0.003907c6.3945 0 11.617 5.1289 11.711 11.551 0.054687 3.3906 0.87891 84.398-24.438 188.89-23.43 96.801-74.781 232.18-186.28 327.42-2.2227 1.8789-4.9062 2.8086-7.6172 2.8047z" fill="#007335" fill-rule="evenodd"/>
 <path d="m328.47 999.55v66.871c0 25.855 21.039 46.902 46.918 46.902l409.97-0.003906c25.852 0 46.891-21.043 46.891-46.898l0.007812-66.871h-503.79zm456.89 137.21h-409.96c-38.793 0-70.363-31.566-70.363-70.336l0.007812-78.59c0-6.4961 5.2422-11.719 11.711-11.719h527.22c6.4688 0 11.715 5.2266 11.715 11.719l0.003906 78.586c0 38.77-31.547 70.34-70.336 70.336z" fill="#007335" fill-rule="evenodd"/>
 <path d="m1039 616.93h-917.32c-6.4688 0-11.723-5.25-11.723-11.719 0-6.4727 5.25-11.719 11.719-11.719l917.32-0.003906c6.4609 0 11.711 5.25 11.711 11.719 0.003906 6.4688-5.25 11.719-11.711 11.719z" fill="#007335" fill-rule="evenodd"/>
 <path d="m249.76 234.58c-13.602 0-27.035 3.5664-39.121 10.547-18.164 10.473-31.152 27.418-36.574 47.656-5.418 20.262-2.6367 41.406 7.8359 59.57 10.508 18.137 27.418 31.129 47.656 36.547 41.797 11.203 84.934-13.695 96.145-55.492 5.4219-20.242 2.6367-41.406-7.8633-59.547-10.469-18.164-27.391-31.152-47.656-36.57l0.007812-0.003907c-6.7695-1.8047-13.633-2.707-20.434-2.707zm0.089844 180.45c-8.6914 0.019531-17.555-1.125-26.344-3.4688-26.293-7.0586-48.289-23.926-61.891-47.484-13.625-23.586-17.238-51.051-10.18-77.344 7.0391-26.293 23.902-48.289 47.484-61.891 23.594-13.625 51.051-17.238 77.344-10.18 26.297 7.0273 48.266 23.902 61.891 47.484 13.602 23.559 17.234 51.051 10.18 77.344-12.18 45.48-53.492 75.539-98.488 75.539z" fill="#007335" fill-rule="evenodd"/>
 <path d="m291.36 133.8 149.95 40.184c4.2969-37.914-19.73-74.41-57.695-84.59-20.254-5.4219-41.406-2.6367-59.543 7.8594-14.738 8.4961-26.074 21.242-32.715 36.547zm159.08 66.48c-1.0234 0-2.0273-0.12109-3.0312-0.39062l-174.27-46.707c-6.2422-1.6836-9.9609-8.1055-8.3008-14.355 7.0586-26.297 23.926-48.266 47.508-61.891 23.566-13.598 51.027-17.234 77.32-10.18 54.297 14.551 86.621 70.559 72.098 124.83-0.80078 3.0039-2.7852 5.5664-5.4688 7.1289-1.8047 1.0234-3.832 1.5625-5.8555 1.5625z" fill="#007335" fill-rule="evenodd"/>
 <path d="m727.29 492.32c-1.418 0-2.8594-0.26953-4.2539-0.80469-6.0195-2.3438-9.0312-9.1328-6.6875-15.16l83.723-215.36c9.3711-24.098 28.703-42.867 54.434-52.828 31.324-12.137 68.406-10.277 99.195 5.0039 2.2188 1.0977 4.418 2.2695 6.5156 3.4922 30.402 17.551 53.297 49.879 59.766 84.375 5.3086 28.223-1.1211 55.395-18.066 76.488l-88.621 110.4c-4.0547 5.0547-11.426 5.8594-16.457 1.8086-5.043-4.0547-5.8594-11.426-1.8086-16.48l88.633-110.4c16.137-20.094 16.129-42.355 13.273-57.496-5.1445-27.539-24.172-54.395-48.438-68.383-1.6875-0.98047-3.4453-1.9297-5.2031-2.8086-24.633-12.207-55.395-13.816-80.324-4.1484-13.809 5.3438-32.152 16.555-41.062 39.477l-83.707 215.36c-1.8125 4.6133-6.2383 7.4727-10.922 7.4727z" fill="#007335" fill-rule="evenodd"/>
 <path d="m992.6 275.62c-4.0547 0-7.9844-2.0977-10.16-5.8594-3.2461-5.6172-1.3164-12.77 4.2695-16.016l81.648-47.121c6.4922-3.7617 9.7812-8.9609 9.7812-15.43 0.007813-7.3008-4.3945-14.918-10.695-18.555-5.6367-3.25-11.793-2.9766-18.262 0.75781l-24.824 14.332c-4.6133 2.6602-10.402 1.8789-14.164-1.8555-3.7344-3.7578-4.5195-9.5469-1.8594-14.16l13.02-22.535c6.9102-11.961 0.41016-21.383-7.2539-25.805-7.6641-4.4453-19.07-5.3477-25.977 6.6172l-13.008 22.559c-2.6367 4.5898-8.0391 6.8359-13.188 5.4453-5.125-1.3711-8.668-6.0039-8.668-11.305l0.003906-28.664c0-13.988-10.355-18.945-19.195-18.945-8.832-0.003907-19.188 4.957-19.188 18.945l0.007813 94.066c0 6.4922-5.2578 11.719-11.727 11.719-6.4648 0-11.719-5.2266-11.719-11.719v-94.07c0-27.832 21.434-42.383 42.625-42.383 18.492 0 37.184 11.082 41.625 32.422 14.414-14.039 34.863-13.816 50.121-5.0039 15.293 8.8359 25.707 26.465 20.75 45.973 11.062-3.5898 22.535-2.4922 32.57 3.2969 13.648 7.8828 22.434 23.121 22.434 38.867 0.003907 14.793-7.8359 27.832-21.508 35.719l-81.605 47.145c-1.8555 1.0508-3.8906 1.5625-5.8672 1.5625z" fill="#007335" fill-rule="evenodd"/>
 <path d="m890.79 326.26c-1.9805 0-4.0039-0.51172-5.8359-1.5625l-22.875-13.207c-5.6133-3.2461-7.5195-10.398-4.3008-16.016 3.2539-5.5898 10.426-7.5195 16.016-4.2969l22.879 13.207c5.6133 3.2461 7.5156 10.402 4.293 16.016-2.1719 3.7578-6.1289 5.8594-10.18 5.8594z" fill="#007335" fill-rule="evenodd"/>
 <path d="m888.19 428.43c-2.0078 0-4.0117-0.51172-5.8672-1.5859l-22.871-13.207c-5.5898-3.2227-7.5234-10.398-4.2773-15.992 3.2305-5.6172 10.398-7.543 15.992-4.2969l22.879 13.207c5.6133 3.2227 7.5156 10.402 4.293 16.016-2.1719 3.7578-6.1055 5.8594-10.148 5.8594z" fill="#007335" fill-rule="evenodd"/>
 <path d="m559.1 271.98c36.312 12.355 67.113 10.355 91.695-5.9297 51.543-34.207 65.578-121.41 69.145-154.88-33.496 3.5625-120.8 17.699-154.91 69.164-16.281 24.559-18.262 55.371-5.9336 91.648zm44 31.496c-17.797 0-36.898-3.7812-57.258-11.328-3.1875-1.1992-5.7148-3.7109-6.8828-6.9102-17.078-45.926-14.867-85.598 6.5664-117.89 49.027-73.902 181.12-80.492 186.74-80.738 3.3281-0.12109 6.4688 1.0977 8.7891 3.418 2.3281 2.3438 3.5664 5.5195 3.418 8.8125-0.24609 5.5898-6.8125 137.7-80.738 186.74-17.988 11.938-38.258 17.895-60.637 17.895z" fill="#007335" fill-rule="evenodd"/>
 <path d="m549.93 292.88c-2.9766 0-5.9883-1.1445-8.2852-3.4414-4.5586-4.5664-4.5664-11.988 0-16.578l98.352-98.316c4.5586-4.5898 11.977-4.5898 16.566 0 4.5703 4.5625 4.5664 11.988 0 16.578l-98.34 98.312c-2.2969 2.2969-5.3008 3.4453-8.293 3.4414z" fill="#007335" fill-rule="evenodd"/>
 <path d="m388.19 492.32c-1.9766 0-4.0156-0.51172-5.8672-1.5859-5.5898-3.2227-7.5195-10.398-4.2734-15.992l88.531-153.34c1.5391-2.6875 4.0977-4.6641 7.1016-5.4688 3.0078-0.80859 6.1992-0.36719 8.8867 1.1719 57.598 33.25 89.184 99.707 78.637 165.36-1.0234 6.3984-7.0078 10.742-13.426 9.7148-6.3906-1.0508-10.742-7.0547-9.7188-13.453 8.3984-52.223-14.406-105.03-57.301-135.01l-82.418 142.75c-2.1758 3.7617-6.1094 5.8633-10.152 5.8594z" fill="#007335" fill-rule="evenodd"/>
 <path d="m483.79 492.32c-1.0742 0-2.2031-0.14453-3.3008-0.48828-6.1992-1.8086-9.7656-8.3008-7.957-14.527 9.5039-32.57-4.418-67.164-33.863-84.156-5.5898-3.2461-7.5195-10.402-4.2734-16.016 3.2305-5.6172 10.398-7.5195 15.992-4.2969 38.82 22.41 57.152 68.066 44.652 111.04-1.5117 5.125-6.1758 8.4453-11.246 8.4453z" fill="#007335" fill-rule="evenodd"/>
</svg>
