<?xml version="1.0" encoding="UTF-8"?>
<svg width="1200pt" height="1200pt" version="1.1" viewBox="0 0 1200 1200" xmlns="http://www.w3.org/2000/svg">
 <path d="m1088.3 665.53c0-55.406-9.1875-109.41-27.141-160.74 5.0625-11.625 7.875-24.375 7.875-37.828 0-46.547-33.562-85.312-77.719-93.609-60.891-81.469-145.87-142.13-242.53-173.06-11.297-65.859-68.719-116.2-137.86-116.2-66.609 0-122.34 46.828-136.31 109.27-106.27 28.172-199.6 91.312-266.02 180-44.203 8.25-77.766 47.062-77.766 93.609 0 13.453 2.8125 26.25 7.875 37.875-17.953 51.891-27.188 105.84-27.188 160.69 0 204.52 127.6 387.1 318.61 457.97 17.25 24.375 45.656 40.406 77.766 40.406 16.969 0 32.906-4.5469 46.734-12.375 14.578 1.4062 29.578 2.3438 45.234 2.3438 21.469 0 43.031-1.5 64.312-4.3125 14.578 9 31.641 14.297 49.969 14.297 37.125 0 69.281-21.422 84.984-52.453 176.11-78.75 289.18-252.28 289.18-445.87zm-477.37-517.87c42.234 0 76.547 34.219 76.547 76.266 0 42.188-34.312 76.5-76.547 76.5-42.047 0-76.266-34.312-76.266-76.5 0-1.6875 0.14062-3.375 0.23438-5.0625v-0.046875c2.7188-39.656 35.766-71.156 76.031-71.156zm-135.1 111.52c15.656 60.188 70.219 104.77 135.1 104.77 62.578 0 115.69-41.25 133.6-97.969 61.547 22.266 117.09 58.641 162.28 105.75l-613.64-0.046875c50.344-52.547 113.06-91.266 182.68-112.5zm-300.71 406.36c0-37.453 4.9688-74.484 14.625-110.53 11.25 4.6406 23.531 7.2656 36.375 7.2656h38.719c12.844 33.562 45.281 57.516 83.297 57.516 25.359 0 48.234-10.688 64.547-27.75v233.34c-34.453 12.375-59.25 45.281-59.25 84 0 38.672 24.797 71.578 59.25 83.953v53.672c-144-70.781-237.56-218.06-237.56-381.47zm267.56 269.58c-14.203 0-25.734-11.578-25.734-25.734 0-14.203 11.578-25.734 25.734-25.734 14.203 0 25.734 11.531 25.734 25.734 0 14.156-11.578 25.734-25.734 25.734zm-120.32-404.63c0-14.203 11.578-25.734 25.734-25.734 14.203 0 25.781 11.531 25.781 25.734s-11.578 25.734-25.781 25.734c-14.156 0-25.734-11.531-25.734-25.734zm299.06 559.26c-6.9844 0.32812-13.922 0.46875-20.812 0.51562 1.6406-6.9844 2.625-14.203 2.625-21.656v-259.08c0-4.2656 3.6094-8.0156 7.7344-8.0156 4.3594 0 8.0156 3.6562 8.0156 8.0156v259.08c0 7.2656 0.84375 14.344 2.4375 21.141zm92.812 10.594c-17.531 0-31.734-14.25-31.734-31.734v-259.08c0-39.422-32.109-71.531-71.531-71.531-39.281 0-71.25 32.109-71.25 71.531v259.08c0 17.203-14.578 31.734-31.734 31.734-17.531 0-31.734-14.25-31.734-31.734v-76.594c32.672-13.266 55.734-45.328 55.734-82.688 0-37.359-23.109-69.422-55.734-82.688v-296.16c0-17.531-14.25-31.781-31.734-31.781h-12.938c-12.844-33.562-45.281-57.516-83.344-57.516-38.016 0-70.453 23.953-83.297 57.516h-38.719c-17.25 0-31.734-14.531-31.734-31.734s14.531-31.734 31.734-31.734h747.71c17.203 0 31.734 14.531 31.734 31.734 0 17.531-14.25 31.734-31.734 31.734h-196.18c-17.531 0-31.734 14.203-31.734 31.781v2.2031c-45.234 4.3125-80.766 42.469-80.766 88.875 0 46.453 35.531 84.75 80.766 89.062v358.03c0 17.484-14.25 31.688-31.781 31.688zm40.266-504.61c14.203 0 25.734 11.578 25.734 25.781 0 14.297-11.578 25.969-25.734 25.969-14.203 0-25.734-11.672-25.734-25.969-0.046875-14.203 11.531-25.781 25.734-25.781zm55.031 439.4v-343.26c20.812-16.406 34.266-41.812 34.266-70.359 0-22.781-8.625-43.5-22.688-59.25h152.76c12.891 0 25.219-2.625 36.469-7.3125 9.6094 35.719 14.531 72.75 14.531 110.58-0.09375 154.74-83.109 294.74-215.34 369.61z" fill="#ff001b"/>
</svg>
