<?xml version="1.0" encoding="UTF-8"?>
<svg width="1200pt" height="1200pt" version="1.1" viewBox="0 0 1200 1200" xmlns="http://www.w3.org/2000/svg">
 <path d="m480.77 864.82h-100.09v-63.402c0-60.758-36.77-114.16-90.918-136.97 18.086-19.406 29.156-45.32 29.156-73.738 0-60.051-49.371-108.91-110.06-108.91s-110.06 48.855-110.06 108.91c0 28.434 11.082 54.344 29.168 73.762-54.133 22.836-90.93 76.285-90.93 136.95v296.1c0 13.543 11.02 24.562 24.562 24.562h294.5c13.543 0 24.562-11.02 24.562-24.562v-110.01h100.09c33.82 0 61.336-27.516 61.336-61.336 0.023438-33.832-27.488-61.348-61.324-61.348zm-271.89-349.91c42.43 0 76.945 34.004 76.945 75.797s-34.52 75.797-76.945 75.797c-42.43 0-76.945-34.004-76.945-75.797-0.003907-41.793 34.516-75.797 76.945-75.797zm271.89 439.48h-160.49c-16.078 0-29.156-13.078-29.156-29.156v-123.82c0-9.1484-7.4062-16.555-16.555-16.555-9.1484 0-16.555 7.4062-16.555 16.555v123.8c0 34.336 27.93 62.277 62.277 62.277h27.293v101.46l-277.42 0.003906v-287.55c0-54.258 37.887-101.09 90.586-112.78 14.547 7.0273 30.871 10.984 48.109 10.984 17.254 0 33.574-3.957 48.121-10.984 52.727 11.68 90.574 58.445 90.574 112.79v79.961c0 9.1484 7.4062 16.555 16.555 16.555h116.66c15.562 0 28.223 12.66 28.223 28.223 0.019531 15.562-12.652 28.223-28.219 28.223zm591.27-289.95c18.086-19.406 29.156-45.32 29.156-73.738 0-60.051-49.371-108.91-110.06-108.91s-110.06 48.855-110.06 108.91c0 28.422 11.07 54.32 29.145 73.727-54.16 22.789-90.895 76.141-90.895 136.98v63.402h-100.09c-33.82 0-61.336 27.516-61.336 61.336s27.516 61.336 61.336 61.336h100.09v110.01c0 13.543 11.02 24.562 24.562 24.562h294.5c13.543 0 24.562-11.02 24.562-24.562l0.003907-296.08c-0.015626-60.797-36.773-114.17-90.922-136.97zm-80.914-149.54c42.43 0 76.945 34.004 76.945 75.797s-34.52 75.797-76.945 75.797c-42.43 0-76.945-34.004-76.945-75.797 0.011718-41.793 34.531-75.797 76.945-75.797zm138.71 574.05h-277.41v-101.46h27.293c34.336 0 62.277-27.93 62.277-62.277v-123.81c0-9.1484-7.4062-16.555-16.555-16.555-9.1484 0-16.555 7.4062-16.555 16.555v123.8c0 16.078-13.078 29.156-29.156 29.156h-160.5c-15.562 0-28.223-12.66-28.223-28.223s12.66-28.223 28.223-28.223h116.66c9.1484 0 16.555-7.4062 16.555-16.555v-79.961c0-54.418 37.812-101.11 90.562-112.79 14.547 7.0273 30.883 10.984 48.133 10.984 17.254 0 33.574-3.957 48.121-10.984 52.738 11.68 90.574 58.422 90.574 112.79zm-810.68-627.09h19.055v93.723c0 12.355 7.9844 22.973 19.859 26.398 2.4258 0.69922 4.8867 1.0391 7.3359 1.0391 8.3125 0 16.445-3.9414 22.336-11.129l25.934-31.691h267.71l90.051 110.03c5.8906 7.1875 14.008 11.129 22.324 11.129 2.4492 0 4.9102-0.34375 7.3477-1.0391 11.879-3.4297 19.848-14.043 19.848-26.398v-93.723h19.055c25.629 0 46.469-20.84 46.469-46.469l-0.007812-291.02c0-25.629-20.84-46.469-46.469-46.469h-31.859v-31.859c0-25.629-20.84-46.469-46.469-46.469l-442.52-0.003907c-25.629 0-46.469 20.84-46.469 46.469v291.02c-0.003906 25.617 20.852 46.461 46.469 46.461zm520.84-272.51c7.3594 0 13.359 5.9883 13.359 13.359v291.02c0 7.3594-5.9883 13.359-13.359 13.359h-35.609c-9.1484 0-16.555 7.4062-16.555 16.555v94.359l-85.801-104.84c-3.1484-3.8438-7.8477-6.0742-12.809-6.0742h-248.45l37.004-45.219h283.89c25.617 0 46.469-20.84 46.469-46.469v-226.04l31.863-0.003906zm-534.2-64.973c0-7.3594 5.9883-13.359 13.359-13.359h442.51c7.3594 0 13.348 5.9883 13.348 13.359v291.02c0 7.3594-5.9883 13.348-13.348 13.348h-291.74c-4.9609 0-9.6719 2.2305-12.809 6.0742l-85.801 104.84v-94.348c0-9.1484-7.4062-16.555-16.555-16.555h-35.609c-7.3594 0-13.359-5.9883-13.359-13.348zm135.95 205.07h39.098v39.098c0 14.914 12.133 27.051 27.051 27.051h65.031c14.914 0 27.051-12.133 27.051-27.051v-39.098h39.109c14.914 0 27.051-12.133 27.051-27.051v-65.031c0-14.914-12.133-27.051-27.051-27.051h-39.109v-39.109c0-14.914-12.133-27.051-27.051-27.051h-65.031c-14.914 0-27.051 12.133-27.051 27.051v39.109h-39.098c-14.914 0-27.051 12.133-27.051 27.051v65.031c0.003907 14.918 12.137 27.051 27.051 27.051zm6.0742-85.996h49.594c9.1484 0 16.555-7.4062 16.555-16.555v-49.594h52.887v49.594c0 9.1484 7.4062 16.555 16.555 16.555h49.594v52.887h-49.594c-9.1484 0-16.555 7.4062-16.555 16.555v49.594h-52.887v-49.594c0-9.1484-7.4062-16.555-16.555-16.555h-49.594z" fill="#ff59b9"/>
</svg>
