<?xml version="1.0" encoding="UTF-8"?>
<svg width="1200pt" height="1200pt" version="1.1" viewBox="0 0 1200 1200" xmlns="http://www.w3.org/2000/svg">
 <path d="m1144.3 411.67-528-205.67c-10.719-4.168-22.613-4.168-33.332 0l-527.33 205.33c-10.828 4.2422-19.594 12.512-24.457 23.074-4.8633 10.562-5.4531 22.598-1.6367 33.582 3.8125 10.988 11.73 20.07 22.094 25.344l181.66 90.336v236.33c2.707 44.129 27.883 83.777 66.668 105 66.668 45 179.67 72 302 72s235.33-27 302-72c38.785-21.223 63.961-60.871 66.668-105v-236.33l27.668-13.668-0.003907 263.33c-1.082 12.562 3.1523 25 11.676 34.293 8.5234 9.2891 20.551 14.578 33.16 14.578 12.605 0 24.637-5.2891 33.16-14.578 8.5195-9.293 12.758-21.73 11.672-34.293v-308.33l63-31.668c10.41-5.1562 18.398-14.164 22.277-25.113s3.3398-22.977-1.5039-33.535-13.609-18.816-24.441-23.016zm-822.33 217 258 128.67v-0.003907c12.574 6.3594 27.426 6.3594 40 0l258-128.67v191.34c0 26-94.668 87.332-278 87.332s-278-61.332-278-87.332zm695.67-170.33-417.67 208.33-417.67-208.34 417.67-162.33z" fill="#ff814a"/>
</svg>
